<svg xmlns="http://www.w3.org/2000/svg" width="160.733" height="73.854" viewBox="0 0 160.733 73.854">
  <g id="logo" transform="translate(-99.541 -80.747)">
    <path id="Path_13514" data-name="Path 13514" d="M153.4,244.492a5.746,5.746,0,0,1-5.3,4.761,3.758,3.758,0,0,1-3.975-4.462,5.748,5.748,0,0,1,5.3-4.761,3.758,3.758,0,0,1,3.973,4.462" transform="translate(-26.478 -94.663)" fill="#fdfdfd"/>
    <path id="Path_13515" data-name="Path 13515" d="M191.353,244.492a5.748,5.748,0,0,1-5.3,4.761,3.758,3.758,0,0,1-3.973-4.462,5.748,5.748,0,0,1,5.3-4.761,3.758,3.758,0,0,1,3.975,4.462" transform="translate(-49.034 -94.663)" fill="#fdfdfd"/>
    <path id="Path_13516" data-name="Path 13516" d="M137.678,142.29h-18.4c-2.341.163-3.24-.851-2.8-3.152l4.179-23.69a4.367,4.367,0,0,1,3.768-3.921,76.107,76.107,0,0,1,16.227-.01c8.6,2.47,6.117,18.462-10.228,18.444.547-3.33,1.09-6.146,4.233-6.143,3.812,0,5-6.143,1.351-6.143h-7.145c-1.889,0-2.555,1.036-2.856,2.732l-2.343,13.286c-.48,1.764.369,2.549,2.124,2.482,8.156-.3,13.346.085,20.547-3.843,6.027-3.287,10.476-8.228,11.08-14.647,1.6-17-24.574-16.145-37.169-13.412a4.929,4.929,0,0,0-4.575,4.575l-4.98,28.232c-8.775-6.847-12.649-15.423-10.629-26.94a46.38,46.38,0,0,1,10.283-22,58.492,58.492,0,0,1,7.43-7.4c.49.026.98.046,1.482.059a56.155,56.155,0,0,0-5.671,7.543c-5.359,8.6-8.024,17.831-6.707,27.938.475.07.8.145,1.278.221l2.31-13.1c.577-3.268,2.237-4.738,5.681-5.408,14.734-2.882,28.573-3.549,41.967,2.287,24.631,10.724,5.1,42.006-20.44,42.006" transform="translate(0 0)" fill="#fdfdfd"/>
    <path id="Path_13517" data-name="Path 13517" d="M349.74,166.689a2.09,2.09,0,0,0-1.456.636,2.637,2.637,0,0,0-.836,1.511,1.926,1.926,0,0,0,.163,1.361,1.062,1.062,0,0,0,.98.516q1.4,0,1.822-2.369a2.663,2.663,0,0,0,.026-1.307.694.694,0,0,0-.7-.355m2.97-10.174a7.39,7.39,0,0,1,4.91,1.547,3.565,3.565,0,0,1,1.245,1.89,7.189,7.189,0,0,1-.072,2.928l-.49,2.614a9.187,9.187,0,0,0-.234,3.532.916.916,0,0,0,.286.49,2.113,2.113,0,0,0,.7.191c.361.059.5.306.428.737a3.6,3.6,0,0,1-.98,1.758,7.352,7.352,0,0,1-2.016,1.529,6.193,6.193,0,0,1-2.9.774,2.985,2.985,0,0,1-2.693-1.266c-.2-.3-.394-.456-.609-.456a2.142,2.142,0,0,0-1.006.438,7.577,7.577,0,0,1-4.215,1.284,5.617,5.617,0,0,1-3.552-.98,3.62,3.62,0,0,1-1.176-1.7,4.286,4.286,0,0,1-.163-2.183,5.379,5.379,0,0,1,2.047-3.24,11.2,11.2,0,0,1,7.287-2.232,2.776,2.776,0,0,0,1.318-.2,1.412,1.412,0,0,0,.425-.943,6.643,6.643,0,0,0,.092-2.7,1.059,1.059,0,0,0-1.119-.833,1.761,1.761,0,0,0-1,.317A7.109,7.109,0,0,0,348,160.97a5.316,5.316,0,0,1-3.663,2.232,1.668,1.668,0,0,1-1.307-.51,1.508,1.508,0,0,1-.31-1.332,3.267,3.267,0,0,1,.98-1.691,7.588,7.588,0,0,1,2.1-1.47,15.663,15.663,0,0,1,6.914-1.685Zm-35.769.144c.672,0,.918.474.752,1.421a3.01,3.01,0,0,1-.054.3c-.041.193-.077.337-.1.456-.111.631.025.948.4.948.2,0,.549-.258,1.064-.756a8.534,8.534,0,0,1,2.7-1.733,7.959,7.959,0,0,1,3.063-.636,3.462,3.462,0,0,1,3.7,2.142c.191.529.389.792.58.792a3.185,3.185,0,0,0,1.036-.7,8.629,8.629,0,0,1,5.576-2.232,4.678,4.678,0,0,1,3.495,1.242,4.248,4.248,0,0,1,.817,3.9c-.065.373-.172,1.008-.364,1.9-.065.306-.252,1.224-.523,2.759-.173.98-.3,1.68-.384,2.077-.052.245-.091.42-.111.528a2.632,2.632,0,0,0,.355,1.961,5.239,5.239,0,0,1,.4.678.848.848,0,0,1,.018.444q-.4,2.25-5.689,2.256a9.69,9.69,0,0,1-3.674-.564c-.889-.374-1.274-.869-1.168-1.47a1.394,1.394,0,0,1,.191-.541c.082-.119.361-.448.843-.972a12.761,12.761,0,0,0,1.392-4.8,11.111,11.111,0,0,0,.253-3.305,1.222,1.222,0,0,0-1.353-1.1,1.858,1.858,0,0,0-1.095.361,2.124,2.124,0,0,0-.748.905,19.55,19.55,0,0,0-.768,3.372,25.326,25.326,0,0,0-.448,3.594,4.738,4.738,0,0,0,.578,1.758,1.08,1.08,0,0,1,.057.665q-.368,2.088-5.834,2.095a12.34,12.34,0,0,1-4.341-.49,1.144,1.144,0,0,1-.675-1.374,1.39,1.39,0,0,1,.224-.618,9.078,9.078,0,0,1,.928-.8,2.4,2.4,0,0,0,.621-.7,5.679,5.679,0,0,0,.377-1.188c.31-1.289.582-2.585.817-3.9q.608-3.446-1.144-3.444a1.856,1.856,0,0,0-1.825,1.47,29.249,29.249,0,0,0-.91,3.972,25.086,25.086,0,0,0-.369,2.531,3.2,3.2,0,0,0,.212,1.248,2.462,2.462,0,0,1,.2,1.23q-.2,1.144-1.881,1.578a15.529,15.529,0,0,1-3.911.48,12.518,12.518,0,0,1-3.9-.431c-.794-.289-1.134-.743-1.026-1.363a1.239,1.239,0,0,1,.268-.6,7.315,7.315,0,0,1,.905-.774,3.594,3.594,0,0,0,1.261-1.985c.389-1.451.714-2.957.988-4.517a11.164,11.164,0,0,0,.248-2.328,1.5,1.5,0,0,0-.526-1.062,2.549,2.549,0,0,1-.568-.618.909.909,0,0,1-.049-.577c.139-.786.866-1.418,2.176-1.866a24.6,24.6,0,0,1,6.932-1.611Zm-19.171-.018c.624,0,.98.087,1.086.265a4.3,4.3,0,0,1,.069,1.686c-.034.515.1.774.4.774a1.109,1.109,0,0,0,.761-.51,5.173,5.173,0,0,1,4.058-2.2,2.928,2.928,0,0,1,2.433,1.031,3.162,3.162,0,0,1,.578,1.307,3.944,3.944,0,0,1,.047,1.536,4.847,4.847,0,0,1-.683,1.7,5.619,5.619,0,0,1-1.253,1.428,4.575,4.575,0,0,1-2.941,1.073,2.863,2.863,0,0,1-1.449-.319,5.8,5.8,0,0,1-1.364-1.278.846.846,0,0,0-.618-.372.792.792,0,0,0-.738.552,12.179,12.179,0,0,0-.562,2.333,21.737,21.737,0,0,0-.446,3.617,1.144,1.144,0,0,0,.212.732,2.205,2.205,0,0,0,.869.408c1,.314,1.431.869,1.292,1.655a2.16,2.16,0,0,1-.73,1.253,3.1,3.1,0,0,1-1.482.714,27,27,0,0,1-5.017.355,14.594,14.594,0,0,1-4.63-.546,1.441,1.441,0,0,1-1.144-1.7,2.513,2.513,0,0,1,1.338-1.634,3.657,3.657,0,0,0,.817-.606,2.2,2.2,0,0,0,.4-.75,45.144,45.144,0,0,0,1.32-5.921,2.556,2.556,0,0,0,.026-1.134.98.98,0,0,0-.6-.552c-.776-.327-1.106-.8-1-1.421a2.2,2.2,0,0,1,1.114-1.451,12.806,12.806,0,0,1,3.1-1.206,18.515,18.515,0,0,1,4.73-.812Zm-20.617,3.941a1.788,1.788,0,0,0-1.336.57,2.765,2.765,0,0,0-.735,1.518,14.029,14.029,0,0,0-.111,2.874,20.054,20.054,0,0,0,.373,3.227c.2.957.7,1.439,1.521,1.439q1.565,0,1.916-1.985a16.242,16.242,0,0,0,.194-3.354,12.344,12.344,0,0,0-.42-3.058,1.47,1.47,0,0,0-1.4-1.23Zm2.124-4.062a8.425,8.425,0,0,1,5.344,1.668,6.893,6.893,0,0,1,2.247,3.114,7.892,7.892,0,0,1,.355,4.181,9.894,9.894,0,0,1-4.64,6.484,14.242,14.242,0,0,1-8.1,2.55,8.214,8.214,0,0,1-6.372-2.389,6.738,6.738,0,0,1-1.47-6.045,10.5,10.5,0,0,1,4.285-6.785,13.637,13.637,0,0,1,8.35-2.777Zm36.878-14.265-.845,6.184a2.287,2.287,0,0,0,.039,1.037,6.47,6.47,0,0,0,.853,1.284.989.989,0,0,1,.124.792,2.1,2.1,0,0,1-1.676,1.614,18.976,18.976,0,0,1-5.035.462,9.042,9.042,0,0,1-3.351-.425,1.212,1.212,0,0,1-.788-1.421,1.109,1.109,0,0,1,.2-.516,10.2,10.2,0,0,1,.846-.817q.832-.738,1.568-4.919a8.237,8.237,0,0,0,.069-3.594,1.4,1.4,0,0,0-1.521-.93,2.062,2.062,0,0,0-1.753.756,6.84,6.84,0,0,0-.921,2.742l-.614,3.478a5.23,5.23,0,0,0-.119,1.421,7.165,7.165,0,0,0,.606,1.493,1.239,1.239,0,0,1,.064.725q-.181,1.034-1.709,1.524a16.091,16.091,0,0,1-4.588.49q-4.884-.01-4.526-2.021a1.3,1.3,0,0,1,.263-.642,3.959,3.959,0,0,1,.817-.624,1.878,1.878,0,0,0,.717-.768,15.079,15.079,0,0,0,.6-2.124c.327-1.332.608-2.735.866-4.2a4.287,4.287,0,0,0,.095-1.59,2.306,2.306,0,0,0-.9-.923,1.121,1.121,0,0,1-.552-1.158,1.709,1.709,0,0,1,.817-1.144,14.067,14.067,0,0,1,2.732-1.134c1.2-.4,2.338-.737,3.431-1.013a11.108,11.108,0,0,1,2.214-.408.962.962,0,0,1,.817.384,1.129,1.129,0,0,1,.2.912c0,.036-.039.186-.09.444a2.124,2.124,0,0,0-.062.245c-.1.557.085.84.554.84.283,0,.614-.222,1.011-.667a6.066,6.066,0,0,1,4.782-2.178,5.361,5.361,0,0,1,3.594,1.158,3.527,3.527,0,0,1,1.2,1.943,10.386,10.386,0,0,1-.034,3.284Zm-32.607-2.441a1.828,1.828,0,0,0-1.336.57,2.778,2.778,0,0,0-.735,1.518,14,14,0,0,0-.111,2.874,19.166,19.166,0,0,0,.373,3.227c.191.961.7,1.439,1.523,1.439q1.565,0,1.916-1.985a16.208,16.208,0,0,0,.2-3.354,12.514,12.514,0,0,0-.42-3.058,1.482,1.482,0,0,0-1.4-1.23Zm2.124-4.062a8.416,8.416,0,0,1,5.344,1.668,6.92,6.92,0,0,1,2.246,3.114,7.939,7.939,0,0,1,.355,4.181,9.9,9.9,0,0,1-4.642,6.484,14.256,14.256,0,0,1-8.1,2.549,8.208,8.208,0,0,1-6.372-2.387,6.733,6.733,0,0,1-1.47-6.045,10.487,10.487,0,0,1,4.285-6.785,13.614,13.614,0,0,1,8.352-2.779Z" transform="translate(-99.233 -32.685)" fill="#fdfdfd"/>
  </g>
</svg>
