<svg xmlns="http://www.w3.org/2000/svg" xmlns:xlink="http://www.w3.org/1999/xlink" width="35" height="35" viewBox="0 0 35 35">
  <defs>
    <clipPath id="clip-path">
      <rect id="Rectangle_33" data-name="Rectangle 33" width="24" height="24" transform="translate(1536 7114)" fill="#fdfdfd" stroke="#707070" stroke-width="1"/>
    </clipPath>
  </defs>
  <g id="Group_52083" data-name="Group 52083" transform="translate(-1514 -7107)">
    <g id="Mask_Group_8" data-name="Mask Group 8" transform="translate(-16 -1)" clip-path="url(#clip-path)">
      <g id="twitter" transform="translate(1536 7114)">
        <g id="Group_52080" data-name="Group 52080">
          <path id="Path_1419" data-name="Path 1419" d="M24,4.559a10.258,10.258,0,0,1-2.835.777,4.893,4.893,0,0,0,2.164-2.72,9.833,9.833,0,0,1-3.12,1.191A4.92,4.92,0,0,0,11.7,7.172a5.066,5.066,0,0,0,.114,1.122A13.927,13.927,0,0,1,1.671,3.147,4.922,4.922,0,0,0,3.183,9.723,4.859,4.859,0,0,1,.96,9.117v.054A4.943,4.943,0,0,0,4.9,14.005a4.911,4.911,0,0,1-1.29.162,4.35,4.35,0,0,1-.932-.084,4.967,4.967,0,0,0,4.6,3.427,9.886,9.886,0,0,1-6.1,2.1A9.216,9.216,0,0,1,0,19.542,13.852,13.852,0,0,0,7.548,21.75a13.907,13.907,0,0,0,14-14c0-.217-.007-.427-.018-.636A9.816,9.816,0,0,0,24,4.559Z" fill="#fdfdfd"/>
        </g>
      </g>
    </g>
    <g id="Ellipse_124" data-name="Ellipse 124" transform="translate(1514 7107)" fill="none" stroke="#f5f5f5" stroke-width="1">
      <circle cx="17.5" cy="17.5" r="17.5" stroke="none"/>
      <circle cx="17.5" cy="17.5" r="17" fill="none"/>
    </g>
  </g>
</svg>
