<svg xmlns="http://www.w3.org/2000/svg" xmlns:xlink="http://www.w3.org/1999/xlink" width="166" height="166" viewBox="0 0 166 166">
  <defs>
    <clipPath id="clip-path">
      <rect id="Rectangle_38" data-name="Rectangle 38" width="60" height="60" transform="translate(921 1564)" fill="#fdfdfd" stroke="#707070" stroke-width="1"/>
    </clipPath>
  </defs>
  <g id="Group_52141" data-name="Group 52141" transform="translate(-868 -1512)">
    <circle id="Ellipse_133" data-name="Ellipse 133" cx="83" cy="83" r="83" transform="translate(868 1512)" fill="#fb6158"/>
    <g id="Mask_Group_14" data-name="Mask Group 14" clip-path="url(#clip-path)">
      <g id="surface1" transform="translate(921 1564)">
        <path id="Path_1439" data-name="Path 1439" d="M31.143,25.43a5.716,5.716,0,0,1,8.25-7.9l9.814,9.815a3.254,3.254,0,0,0,.078-.555V10.052l-.01-.025h.01V3.214A3.215,3.215,0,0,0,46.071,0H3.214A3.215,3.215,0,0,0,0,3.214V26.786A3.215,3.215,0,0,0,3.214,30H35.333ZM42.857,3.214H45V6.429H42.857Zm-4.286,0h2.143V6.429H38.571Zm-4.286,0h2.143V6.429H34.286ZM30,3.214h2.143V6.429H30ZM2.143,10.071V4.929A2.786,2.786,0,0,1,4.929,2.143h5.143a2.786,2.786,0,0,1,2.786,2.786v5.143a2.786,2.786,0,0,1-2.786,2.786H4.929A2.786,2.786,0,0,1,2.143,10.071ZM7.5,24.643H3.214V22.5H7.5Zm0-6.429H3.214V16.071H7.5Zm6.429,0H9.643V16.071h4.286Zm6.429,0H16.071V16.071h4.286Zm6.429,6.429H22.5V22.5h4.286Zm0-6.429H22.5V16.071h4.286Zm0,0" fill="#fdfdfd"/>
        <path id="Path_1440" data-name="Path 1440" d="M4.98,32.143l1.13,2.933,7.616-2.933Zm0,0" fill="#fdfdfd"/>
        <path id="Path_1441" data-name="Path 1441" d="M10.071,10.714a.643.643,0,0,0,.643-.643v-1.5H8.571V6.429h2.143v-1.5a.643.643,0,0,0-.643-.643H4.929a.643.643,0,0,0-.643.643v1.5H6.429V8.571H4.286v1.5a.643.643,0,0,0,.643.643Zm0,0" fill="#fdfdfd"/>
        <path id="Path_1442" data-name="Path 1442" d="M54.619,26.516a3.189,3.189,0,0,0,.061-2.464l-3.252-8.436v11.17a5.358,5.358,0,0,1-.452,2.143l1.859-.717A3.2,3.2,0,0,0,54.619,26.516Zm0,0" fill="#fdfdfd"/>
        <path id="Path_1443" data-name="Path 1443" d="M56.524,17.346l-3.471-3.478,3.626,9.417a5.357,5.357,0,0,1-3.073,6.929l-1.1.429,3.965,3.964-1.515,1.515L37.883,19.041a3.573,3.573,0,0,0-5.159,4.941l8.786,9.579a1.072,1.072,0,0,1,.14,1.255,13.362,13.362,0,0,0,.271,13.726l.465.742H60V25.7A11.867,11.867,0,0,0,56.524,17.346Zm0,0" fill="#fdfdfd"/>
        <path id="Path_1444" data-name="Path 1444" d="M46.071,51.429H42.857V60H60V51.429Zm1.071,4.286H45V53.571h2.143Zm0,0" fill="#fdfdfd"/>
        <path id="Path_1445" data-name="Path 1445" d="M19.668,32.143v.006L6.881,37.071l1.807,4.7a3.213,3.213,0,0,0,4.155,1.844l25.845-9.954L37.3,32.143Zm0,0" fill="#fdfdfd"/>
      </g>
    </g>
  </g>
</svg>
