<svg xmlns="http://www.w3.org/2000/svg" width="61" height="61" viewBox="0 0 61 61">
  <g id="Group_52139" data-name="Group 52139" transform="translate(-743 -967)">
    <circle id="Ellipse_123" data-name="Ellipse 123" cx="30.5" cy="30.5" r="30.5" transform="translate(743 967)" fill="#fb6158"/>
    <g id="Group_52073" data-name="Group 52073" transform="translate(-50 -1)">
      <path id="Path_1179" data-name="Path 1179" d="M365.97,384.154h-3.381a1.6,1.6,0,0,1-1.582-1.331l-1.193-5.489a1.274,1.274,0,0,1-1.265-1.118l-.346-2.841h-.474a1.6,1.6,0,1,1,0-3.187h13.1a1.6,1.6,0,0,1,0,3.187h-.474l-.346,2.842a1.269,1.269,0,0,1-1.26,1.118l-1.2,5.508A1.6,1.6,0,0,1,365.97,384.154Zm-8.241-13.043a.663.663,0,1,0,0,1.326h.89a.474.474,0,0,1,.474.407l.393,3.258a.341.341,0,0,0,.341.3h.379a.474.474,0,0,1,.474.369l1.274,5.873a.672.672,0,0,0,.668.578h3.348a.672.672,0,0,0,.663-.559l1.274-5.892a.474.474,0,0,1,.474-.369h.379a.336.336,0,0,0,.336-.3l.393-3.258a.474.474,0,0,1,.474-.407h.89a.663.663,0,1,0,0-1.326Z" transform="translate(465.174 625.741)" fill="#fff"/>
      <path id="Path_1180" data-name="Path 1180" d="M375.62,375.847H367.3a.474.474,0,1,1,0-.947h8.316a.474.474,0,1,1,0,.947Z" transform="translate(459.498 623.259)" fill="#fff"/>
      <path id="Path_1181" data-name="Path 1181" d="M370.1,384.227h-5.82a.474.474,0,0,1,0-.947h5.82a.474.474,0,1,1,0,.947Z" transform="translate(461.088 618.848)" fill="#fff"/>
      <path id="Path_1182" data-name="Path 1182" d="M365.127,345.618a.44.44,0,0,1-.152-.024,4.135,4.135,0,0,0-2.368-.109.474.474,0,0,1-.474-.17,5.47,5.47,0,1,1,9.709-2.174.474.474,0,0,1-.592.35,5.125,5.125,0,0,0-1.511-.227,5.252,5.252,0,0,0-4.215,2.145A.474.474,0,0,1,365.127,345.618Zm-1.525-1.189a5.136,5.136,0,0,1,1.359.185,6.157,6.157,0,0,1,4.76-2.259,5.972,5.972,0,0,1,1.264.133,3.885,3.885,0,0,0,.024-.474,4.537,4.537,0,1,0-8.321,2.5,5.052,5.052,0,0,1,.914-.081Z" transform="translate(462.551 643.444)" fill="#fff"/>
      <path id="Path_1183" data-name="Path 1183" d="M377.339,359.857h-6.446a.474.474,0,0,1-.327-.8,4.206,4.206,0,0,0-1.549-7.014.474.474,0,0,1-.223-.715,6.157,6.157,0,1,1,8.837,8.425A.473.473,0,0,1,377.339,359.857Zm-5.446-.947h5.281a5.217,5.217,0,0,0-7.246-7.506,5.143,5.143,0,0,1,2.865,4.608,5.058,5.058,0,0,1-.9,2.913Z" transform="translate(458.508 636.995)" fill="#fff"/>
      <path id="Path_1184" data-name="Path 1184" d="M363.986,362.328h-6.512a.474.474,0,0,1-.322-.133,5.15,5.15,0,1,1,7.156,0A.473.473,0,0,1,363.986,362.328Zm-6.318-.947h6.124a4.172,4.172,0,0,0,1.156-2.9,4.22,4.22,0,0,0-8.435,0,4.173,4.173,0,0,0,1.16,2.913Z" transform="translate(465.42 634.525)" fill="#fff"/>
      <path id="Path_1185" data-name="Path 1185" d="M382.879,358.394a1.264,1.264,0,0,1-.294-2.491.474.474,0,1,1,.218.9.332.332,0,0,0,.076.658.327.327,0,0,0,.308-.213.474.474,0,0,1,.867.341,1.25,1.25,0,0,1-1.174.8Z" transform="translate(451.708 633.282)" fill="#fff"/>
      <path id="Path_1186" data-name="Path 1186" d="M362.216,363.122a1.8,1.8,0,0,1-1.79-1.795,2.146,2.146,0,0,1,0-.246.466.466,0,0,1,.924.128,1,1,0,0,0,0,.118.862.862,0,1,0,1.066-.834.474.474,0,0,1,.223-.9,1.79,1.79,0,0,1-.426,3.533Z" transform="translate(462.871 631.32)" fill="#fff"/>
      <path id="Path_1187" data-name="Path 1187" d="M368.062,343.708a1.132,1.132,0,0,1-1.085-.81.474.474,0,0,1,.89-.265.2.2,0,0,0,.393-.057.2.2,0,0,0-.066-.147.474.474,0,1,1,.635-.682,1.133,1.133,0,0,1-.767,1.961Z" transform="translate(459.421 640.811)" fill="#fff"/>
      <path id="Path_1188" data-name="Path 1188" d="M381,366.113a1.554,1.554,0,0,1-.985-.3,1.2,1.2,0,0,1-.474-.871.474.474,0,0,1,.947-.033.246.246,0,0,0,.109.18,1.25,1.25,0,0,0,.924.028.474.474,0,0,1,.208.909A3.154,3.154,0,0,1,381,366.113Z" transform="translate(452.807 628.75)" fill="#fff"/>
      <path id="Path_1189" data-name="Path 1189" d="M370.641,361.5a.474.474,0,0,1-.431-.644.412.412,0,0,0-.171-.549.474.474,0,1,1,.445-.819,1.35,1.35,0,0,1,.583,1.729A.474.474,0,0,1,370.641,361.5Z" transform="translate(457.979 631.429)" fill="#fff"/>
      <path id="Path_1190" data-name="Path 1190" d="M377.337,354.721l-.426-.185-.44-.161c0-.038.374-.976,1.828-.687a.474.474,0,0,1-.18.914C377.479,354.475,377.341,354.712,377.337,354.721Z" transform="translate(454.423 634.454)" fill="#fff"/>
      <path id="Path_1191" data-name="Path 1191" d="M375.17,343.815h-.076a.466.466,0,0,1-.1-.9,1.654,1.654,0,0,0-.066-.308.467.467,0,0,1,.9-.265,1.264,1.264,0,0,1-.095,1.217A.715.715,0,0,1,375.17,343.815Z" transform="translate(455.363 640.572)" fill="#fff"/>
      <path id="Path_1192" data-name="Path 1192" d="M366.638,349.107l-.279-.374-.3-.355a1.894,1.894,0,0,1,1.624-.2.466.466,0,1,1-.185.914,1.326,1.326,0,0,0-.862.019Z" transform="translate(459.903 637.364)" fill="#fff"/>
    </g>
  </g>
</svg>
