<svg xmlns="http://www.w3.org/2000/svg" xmlns:xlink="http://www.w3.org/1999/xlink" width="166" height="166" viewBox="0 0 166 166">
  <defs>
    <clipPath id="clip-path">
      <rect id="Rectangle_37" data-name="Rectangle 37" width="60" height="60" transform="translate(1513 1564)" fill="#fafafa" stroke="#707070" stroke-width="1"/>
    </clipPath>
  </defs>
  <g id="Group_52140" data-name="Group 52140" transform="translate(-1460 -1512)">
    <circle id="Ellipse_132" data-name="Ellipse 132" cx="83" cy="83" r="83" transform="translate(1460 1512)" fill="#fb6158"/>
    <g id="Mask_Group_13" data-name="Mask Group 13" clip-path="url(#clip-path)">
      <g id="motorcycle" transform="translate(1513 1564)">
        <path id="Path_1437" data-name="Path 1437" d="M58.453,44.045a5.935,5.935,0,0,0-.161-2.7c-1.754-6.316-7-19.249-11.361-24.575a3.168,3.168,0,0,0-4.626,0,3.253,3.253,0,0,0-.941,2.014,2.291,2.291,0,0,0-1.256-.6s-11.059-1.378-11.193-1.361H23.886a1.873,1.873,0,0,0-2.118,2.118V35.086H18.077V17.773a1.555,1.555,0,0,0-1.553-1.553H1.553A1.555,1.555,0,0,0,0,17.773S.005,42.084.005,43.656a3.271,3.271,0,0,0,3.271,3.271H6.485a8.838,8.838,0,1,0,17.165,0h9.891v2.167A3.11,3.11,0,0,0,36.649,52.2h.059a3.085,3.085,0,0,0,3.082-3.114l-.022-2.16h2.811a8.839,8.839,0,1,0,15.874-2.881ZM51.162,45.7a3.335,3.335,0,1,1-3.336,3.335A3.339,3.339,0,0,1,51.162,45.7ZM18.4,49.032A3.336,3.336,0,1,1,15.068,45.7,3.339,3.339,0,0,1,18.4,49.032Zm21.249-13.47a3.142,3.142,0,0,0-3.131-3.1h-5.17V21.906l2.528.311a2.1,2.1,0,0,0,2.053,1.654h8.849l.686,5.714-5.8,7.591Z" fill="#fafafa"/>
        <path id="Path_1438" data-name="Path 1438" d="M25.791,14.559a6.215,6.215,0,0,0,6.083-7.486l1.363-.027A2.453,2.453,0,0,0,35.273,5.73l.457-.962a1.338,1.338,0,0,0-.031-1.31,1.339,1.339,0,0,0-1.172-.59l-5.776.013a6.214,6.214,0,1,0-2.96,11.677Z" fill="#fafafa"/>
      </g>
    </g>
  </g>
</svg>
