<svg xmlns="http://www.w3.org/2000/svg" width="118" height="118" viewBox="0 0 118 118">
  <g id="Group_52137" data-name="Group 52137" transform="translate(-175 -927)">
    <circle id="Ellipse_120" data-name="Ellipse 120" cx="59" cy="59" r="59" transform="translate(175 927)" fill="#fb6158"/>
    <g id="Component_4_2" data-name="Component 4 – 2" transform="translate(216.622 955.239)">
      <path id="Path_1156" data-name="Path 1156" d="M300.8,459.55H281.93a2.69,2.69,0,0,1-2.66-2.36l-.73-6h-1a3.37,3.37,0,1,1,0-6.73h27.65a3.37,3.37,0,1,1,0,6.73h-1l-.73,6A2.68,2.68,0,0,1,300.8,459.55Zm-23.26-13.14a1.4,1.4,0,0,0,0,2.8h1.88a1,1,0,0,1,1,.86l.83,6.88a.72.72,0,0,0,.71.63H300.8a.71.71,0,0,0,.71-.63l.83-6.88a1,1,0,0,1,1-.86h1.87a1.4,1.4,0,1,0,0-2.8Z" transform="translate(-273.987 -415.578)" fill="#f9f9f9"/>
      <path id="Path_1157" data-name="Path 1157" d="M294.94,477.1H287.8a3.38,3.38,0,0,1-3.34-2.82l-2.69-15.55a1,1,0,0,1,1-1.15H300a.974.974,0,0,1,.96,1.15l-2.68,15.55a3.39,3.39,0,0,1-3.34,2.82Zm-11-17.55,2.48,14.4a1.43,1.43,0,0,0,1.41,1.18h7.14a1.43,1.43,0,0,0,1.4-1.18l2.49-14.4Z" transform="translate(-273.987 -415.578)" fill="#f9f9f9"/>
      <path id="Path_1158" data-name="Path 1158" d="M297.59,451.17H279.42a1,1,0,0,1,0-2h18.17a1,1,0,0,1,0,2Z" transform="translate(-273.987 -415.578)" fill="#f9f9f9"/>
      <path id="Path_1159" data-name="Path 1159" d="M291.37,440.31a1,1,0,0,1,0-2c5.94,0,10.93-2.84,11.12-6.32a1,1,0,1,1,2,.11C304.21,436.72,298.46,440.31,291.37,440.31Z" transform="translate(-273.987 -415.578)" fill="#f9f9f9"/>
      <path id="Path_1160" data-name="Path 1160" d="M282.29,437.78a1,1,0,0,1-.57-.18,7.19,7.19,0,0,1-3.45-5.77,1,1,0,1,1,2,0,5.3,5.3,0,0,0,2.61,4.16,1,1,0,0,1-.56,1.79Z" transform="translate(-273.987 -415.578)" fill="#f9f9f9"/>
      <path id="Path_1161" data-name="Path 1161" d="M294.74,427.62a.981.981,0,0,1-.25-1.93c2.62-.7,4.38-2.26,4.38-3.87,0-2.31-3.44-4.27-7.5-4.27a12.5,12.5,0,0,0-1.74.12,1,1,0,1,1-.27-1.95,14.749,14.749,0,0,1,2-.14c5.31,0,9.46,2.74,9.46,6.24,0,2.55-2.29,4.82-5.83,5.77a1.148,1.148,0,0,1-.25.03Z" transform="translate(-273.987 -415.578)" fill="#f9f9f9"/>
      <path id="Path_1162" data-name="Path 1162" d="M285.17,426.38a1,1,0,0,1-.3-1.91,8.74,8.74,0,0,1,4.51-.25,1,1,0,0,1-.57,1.89,6.851,6.851,0,0,0-3.34.23,1,1,0,0,1-.3.04Z" transform="translate(-273.987 -415.578)" fill="#f9f9f9"/>
      <path id="Path_1163" data-name="Path 1163" d="M305.57,446.41H277.16a1,1,0,0,1-.86-.5,7.2,7.2,0,0,1-1-3.58c0-2.62,1.46-5.05,4.15-6.95a6.1,6.1,0,0,1-1.19-3.55c0-3.06,2.43-5.8,6.49-7.32,1.3-.74,2-1.54,2.05-2.38.09-1.36-1.43-2.8-2-3.24a1,1,0,0,1,.07-1.63,12.6,12.6,0,0,1,6.51-1.68c5.31,0,9.46,2.74,9.46,6.24a4.78,4.78,0,0,1-1.42,3.31c3.19,1.59,5,4,5,6.7a6.1,6.1,0,0,1-1.19,3.55c2.69,1.9,4.15,4.33,4.15,6.95a7.2,7.2,0,0,1-1,3.58A1,1,0,0,1,305.57,446.41Zm-27.81-2H305a5.07,5.07,0,0,0,.49-2.11c0-2.19-1.48-4.28-4.15-5.87a.983.983,0,0,1-.21-1.52,4.52,4.52,0,0,0,1.39-3.11c0-2.19-2-4.3-5.27-5.51a.977.977,0,0,1-.2-1.74,3.52,3.52,0,0,0,1.85-2.76c0-2.31-3.44-4.27-7.5-4.27a11.27,11.27,0,0,0-4.29.79,5.51,5.51,0,0,1,1.69,3.91c-.1,1.57-1.15,2.92-3.12,4a.38.38,0,0,1-.13.06c-3.26,1.21-5.28,3.32-5.28,5.51a4.54,4.54,0,0,0,1.39,3.11.983.983,0,0,1-.21,1.52c-2.67,1.59-4.14,3.68-4.14,5.87a5.06,5.06,0,0,0,.45,2.15Z" transform="translate(-273.987 -415.578)" fill="#f9f9f9"/>
    </g>
  </g>
</svg>
