<svg xmlns="http://www.w3.org/2000/svg" width="92" height="92" viewBox="0 0 92 92">
  <g id="Group_52138" data-name="Group 52138" transform="translate(-758 -661)">
    <circle id="Ellipse_122" data-name="Ellipse 122" cx="46" cy="46" r="46" transform="translate(758 661)" fill="#fb6158"/>
    <g id="Component_3_2" data-name="Component 3 – 2" transform="translate(785.439 676.36)">
      <path id="Path_1193" data-name="Path 1193" d="M139.14,295.85H113.23a3.22,3.22,0,0,1,0-6.43h25.91a3.22,3.22,0,1,1,0,6.43Zm-25.91-4.46a1.25,1.25,0,0,0,0,2.5h25.91a1.25,1.25,0,1,0,0-2.5Z" transform="translate(-107.619 -258.851)" fill="#f9f9f9"/>
      <path id="Path_1194" data-name="Path 1194" d="M129.53,320.13h-6.69a3.23,3.23,0,0,1-3.19-2.68l-2.37-13.75a2.59,2.59,0,0,1-2.49-2.27L114,295a.981.981,0,0,1,.97-1.1h22.39a.981.981,0,0,1,.98,1.1l-.78,6.44a2.58,2.58,0,0,1-2.48,2.27l-2.38,13.75A3.23,3.23,0,0,1,129.53,320.13ZM116.1,295.85l.65,5.35a.6.6,0,0,0,.6.53h.75a1,1,0,0,1,1,.82l2.52,14.56a1.28,1.28,0,0,0,1.25,1.06h6.69a1.27,1.27,0,0,0,1.25-1.06l2.52-14.56a1,1,0,0,1,1-.82H135a.62.62,0,0,0,.61-.53l.64-5.35Z" transform="translate(-107.619 -258.851)" fill="#f9f9f9"/>
      <path id="Path_1195" data-name="Path 1195" d="M129.05,303.7h-11a1,1,0,0,1,0-2h11a1,1,0,0,1,0,2Z" transform="translate(-107.619 -258.851)" fill="#f9f9f9"/>
      <path id="Path_1196" data-name="Path 1196" d="M126.19,283.54a7.55,7.55,0,0,1-7.13-5.1,7.45,7.45,0,0,1-4.59,1.57,7.54,7.54,0,0,1-6.63-4,.984.984,0,0,1,1.73-.94,5.56,5.56,0,0,0,9.31.75,1,1,0,0,1,1.76.54,5.56,5.56,0,0,0,11.1,0,.983.983,0,0,1,1.76-.54,5.5,5.5,0,0,0,4.4,2.18,5.58,5.58,0,0,0,4.91-2.929,1,1,0,0,1,1.73.939,7.54,7.54,0,0,1-6.64,4,7.45,7.45,0,0,1-4.59-1.57,7.55,7.55,0,0,1-7.12,5.1Z" transform="translate(-107.619 -258.851)" fill="#f9f9f9"/>
      <path id="Path_1197" data-name="Path 1197" d="M138,291.39H114.34a1,1,0,0,1-.66-.26,18.56,18.56,0,1,1,25,0A1,1,0,0,1,138,291.39Zm-23.3-2h22.92a16.6,16.6,0,1,0-22.92,0Z" transform="translate(-107.619 -258.851)" fill="#f9f9f9"/>
      <path id="Path_1198" data-name="Path 1198" d="M133.73,291.39H118.64a1,1,0,0,1-.8-.42,23.32,23.32,0,0,1-3.78-11.92.961.961,0,1,1,1.92-.08,21.71,21.71,0,0,0,3.15,10.48h14a21.85,21.85,0,0,0,3.15-10.48,1,1,0,1,1,2,.11A23.41,23.41,0,0,1,134.54,291,1,1,0,0,1,133.73,291.39Z" transform="translate(-107.619 -258.851)" fill="#f9f9f9"/>
      <path id="Path_1199" data-name="Path 1199" d="M128.84,291.39h-5.31a1,1,0,0,1-1-.75,50.5,50.5,0,0,1-1.22-9.28.966.966,0,0,1,1.93-.07,52.332,52.332,0,0,0,1,8.16h3.75a52.332,52.332,0,0,0,1-8.16,1,1,0,1,1,2,.1,52.3,52.3,0,0,1-1.22,9.28A1,1,0,0,1,128.84,291.39Z" transform="translate(-107.619 -258.851)" fill="#f9f9f9"/>
    </g>
  </g>
</svg>
