<svg xmlns="http://www.w3.org/2000/svg" xmlns:xlink="http://www.w3.org/1999/xlink" width="1920" height="759.387" viewBox="0 0 1920 759.387">
  <defs>
    <clipPath id="clip-path">
      <rect id="Rectangle_36" data-name="Rectangle 36" width="1920" height="681" transform="translate(0 7962)" fill="#fff" stroke="#707070" stroke-width="1"/>
    </clipPath>
    <clipPath id="clip-path-2">
      <path id="Path_1398" data-name="Path 1398" d="M0,0H1920V759.387H0Z" transform="translate(0 6821)" fill="#d1bee1" stroke="#707070" stroke-width="1"/>
    </clipPath>
    <clipPath id="clip-path-3">
      <rect id="Rectangle_30" data-name="Rectangle 30" width="18" height="18" transform="translate(518 7009)" fill="#7a659b" stroke="#707070" stroke-width="1"/>
    </clipPath>
    <clipPath id="clip-path-4">
      <rect id="Rectangle_31" data-name="Rectangle 31" width="18" height="18" transform="translate(518 7061)" fill="#7a659b" stroke="#707070" stroke-width="1"/>
    </clipPath>
    <clipPath id="clip-path-5">
      <rect id="Rectangle_32" data-name="Rectangle 32" width="18" height="18" transform="translate(518 7107)" fill="#7a659b" stroke="#707070" stroke-width="1"/>
    </clipPath>
    <clipPath id="clip-path-6">
      <rect id="Rectangle_33" data-name="Rectangle 33" width="24" height="24" transform="translate(1452 7114)" fill="#fdfdfd" stroke="#707070" stroke-width="1"/>
    </clipPath>
    <clipPath id="clip-path-7">
      <rect id="Rectangle_33-2" data-name="Rectangle 33" width="24" height="24" transform="translate(1536 7114)" fill="#fdfdfd" stroke="#707070" stroke-width="1"/>
    </clipPath>
    <clipPath id="clip-path-8">
      <rect id="Rectangle_33-3" data-name="Rectangle 33" width="24" height="24" transform="translate(1704 7114)" fill="#fdfdfd" stroke="#707070" stroke-width="1"/>
    </clipPath>
    <clipPath id="clip-path-9">
      <rect id="Rectangle_33-4" data-name="Rectangle 33" width="24" height="24" transform="translate(1620 7114)" fill="#fdfdfd" stroke="#707070" stroke-width="1"/>
    </clipPath>
  </defs>
  <g id="Group_52129" data-name="Group 52129" transform="translate(0 -7962)">
    <g id="Mask_Group_12" data-name="Mask Group 12" clip-path="url(#clip-path)">
      <path id="Path_1436" data-name="Path 1436" d="M1573.734,0c524.1,0,988.357,256.193,1274.6,650.486,188.084,259.08,299.133,578.2,299.133,923.248,0,869.149-704.585,1573.734-1573.734,1573.734S0,2442.883,0,1573.734c0-296.38,81.93-573.624,224.389-810.34a1575.416,1575.416,0,0,1,119.12-171.177C632.23,231.07,1076,0,1573.734,0Z" transform="translate(-613.734 7962.408)" fill="#280063"/>
    </g>
    <line id="Line_1" data-name="Line 1" x2="1606" transform="translate(157.5 8486.5)" fill="none" stroke="#500f9c" stroke-linecap="round" stroke-width="1"/>
    <g id="Group_52062" data-name="Group 52062" transform="translate(0 1275)">
      <text id="كل_الحقوق_محفوظة_لموقع_" data-name="كل الحقوق محفوظة لموقع " transform="translate(311 7259)" fill="#fff" font-size="20" font-family="DINNextLTArabic-Regular, DIN Next LT Arabic"><tspan x="-209.82" y="24">كل الحقوق محفوظة لموقع</tspan><tspan y="24"> </tspan></text>
      <g id="Group_52061" data-name="Group 52061" transform="translate(0 -3)">
        <path id="Icon_metro-copyright" data-name="Icon metro-copyright" d="M13.648,11.5v1.042a1.211,1.211,0,0,1-.349.851,2.319,2.319,0,0,1-.9.579,6.574,6.574,0,0,1-1.129.311,6.278,6.278,0,0,1-1.124.105,4.421,4.421,0,0,1-3.276-1.329A4.517,4.517,0,0,1,5.557,9.745,4.444,4.444,0,0,1,10.1,5.2a6.749,6.749,0,0,1,.722.043,6.171,6.171,0,0,1,.889.172,4.562,4.562,0,0,1,.885.325,1.9,1.9,0,0,1,.66.54,1.229,1.229,0,0,1,.268.775V8.1a.135.135,0,0,1-.153.153H12.242a.135.135,0,0,1-.153-.153V7.431q0-.411-.626-.646a3.723,3.723,0,0,0-1.315-.234,2.906,2.906,0,0,0-2.185.875A3.13,3.13,0,0,0,7.116,9.7a3.369,3.369,0,0,0,.875,2.386,2.914,2.914,0,0,0,2.233.942,4.052,4.052,0,0,0,1.32-.23q.669-.23.669-.631V11.5a.149.149,0,0,1,.043-.11.138.138,0,0,1,.1-.043H13.5a.154.154,0,0,1,.105.043.141.141,0,0,1,.048.11ZM9.995,3.672a5.95,5.95,0,0,0-2.377.488A6.036,6.036,0,0,0,4.362,7.417a6.034,6.034,0,0,0,0,4.753,6.036,6.036,0,0,0,3.256,3.256,6.034,6.034,0,0,0,4.753,0,6.036,6.036,0,0,0,3.256-3.256,6.034,6.034,0,0,0,0-4.753A6.036,6.036,0,0,0,12.371,4.16a5.949,5.949,0,0,0-2.377-.488ZM17.34,9.793a7.185,7.185,0,0,1-.985,3.687,7.312,7.312,0,0,1-2.673,2.673,7.185,7.185,0,0,1-3.687.985,7.185,7.185,0,0,1-3.687-.985A7.312,7.312,0,0,1,3.635,13.48,7.185,7.185,0,0,1,2.65,9.793a7.185,7.185,0,0,1,.985-3.687A7.312,7.312,0,0,1,6.308,3.433a7.185,7.185,0,0,1,3.687-.985,7.185,7.185,0,0,1,3.687.985,7.312,7.312,0,0,1,2.673,2.673A7.185,7.185,0,0,1,17.34,9.793Z" transform="translate(291.35 7268.552)" fill="#fff"/>
        <text id="DownDorma" transform="translate(209 7266)" fill="#fff" font-size="15" font-family="DINNextLTArabic-Regular, DIN Next LT Arabic"><tspan x="0" y="18">DownDorma</tspan></text>
        <text id="_2021" data-name="2021" transform="translate(175 7266)" fill="#fff" font-size="15" font-family="DINNextLTArabic-Regular, DIN Next LT Arabic"><tspan x="0" y="18">2021</tspan></text>
      </g>
    </g>
    <text id="كل_الحقوق_محفوظة_لموقع_2" data-name="كل الحقوق محفوظة لموقع " transform="translate(1553 8534)" fill="#fff" font-size="20" font-family="DINNextLTArabic-Regular, DIN Next LT Arabic"><tspan x="-209.82" y="24">كل الحقوق محفوظة لموقع</tspan><tspan y="24"> </tspan></text>
    <path id="Icon_metro-copyright-2" data-name="Icon metro-copyright" d="M13.648,11.5v1.042a1.211,1.211,0,0,1-.349.851,2.319,2.319,0,0,1-.9.579,6.574,6.574,0,0,1-1.129.311,6.278,6.278,0,0,1-1.124.105,4.421,4.421,0,0,1-3.276-1.329A4.517,4.517,0,0,1,5.557,9.745,4.445,4.445,0,0,1,10.1,5.2a6.749,6.749,0,0,1,.722.043,6.171,6.171,0,0,1,.889.172,4.562,4.562,0,0,1,.885.325,1.9,1.9,0,0,1,.66.54,1.229,1.229,0,0,1,.268.775V8.1a.135.135,0,0,1-.153.153H12.242a.135.135,0,0,1-.153-.153V7.431q0-.411-.626-.646a3.723,3.723,0,0,0-1.315-.234,2.906,2.906,0,0,0-2.185.875A3.13,3.13,0,0,0,7.116,9.7a3.369,3.369,0,0,0,.875,2.386,2.914,2.914,0,0,0,2.233.942,4.052,4.052,0,0,0,1.32-.23q.669-.23.669-.631V11.5a.149.149,0,0,1,.043-.11.138.138,0,0,1,.1-.043H13.5a.154.154,0,0,1,.105.043.141.141,0,0,1,.048.11ZM9.995,3.672a5.95,5.95,0,0,0-2.377.488A6.036,6.036,0,0,0,4.362,7.417a6.034,6.034,0,0,0,0,4.753,6.036,6.036,0,0,0,3.256,3.256,6.034,6.034,0,0,0,4.753,0,6.036,6.036,0,0,0,3.256-3.256,6.034,6.034,0,0,0,0-4.753A6.036,6.036,0,0,0,12.372,4.16a5.95,5.95,0,0,0-2.377-.488ZM17.34,9.793a7.185,7.185,0,0,1-.985,3.687,7.312,7.312,0,0,1-2.673,2.673,7.185,7.185,0,0,1-3.687.985,7.185,7.185,0,0,1-3.687-.985A7.312,7.312,0,0,1,3.635,13.48,7.185,7.185,0,0,1,2.65,9.793a7.185,7.185,0,0,1,.985-3.687A7.312,7.312,0,0,1,6.308,3.433a7.185,7.185,0,0,1,3.687-.985,7.185,7.185,0,0,1,3.687.985,7.312,7.312,0,0,1,2.673,2.673A7.185,7.185,0,0,1,17.34,9.793Z" transform="translate(1414.35 8540.552)" fill="#fff"/>
    <text id="DownDorma-2" data-name="DownDorma" transform="translate(1470 8538)" fill="#fff" font-size="15" font-family="DINNextLTArabic-Regular, DIN Next LT Arabic"><tspan x="0" y="18">DownDorma</tspan></text>
    <text id="_2021-2" data-name="2021" transform="translate(1435 8538)" fill="#fff" font-size="15" font-family="DINNextLTArabic-Regular, DIN Next LT Arabic"><tspan x="0" y="18">2021</tspan></text>
    <g id="Group_52128" data-name="Group 52128" transform="translate(0.5)">
      <g id="Group_52119" data-name="Group 52119" transform="translate(-116.5 6)">
        <text id="الصفحات" transform="translate(1139 8222)" fill="#fff" font-size="16" font-family="DINNextLTArabic-Medium, DIN Next LT Arabic" font-weight="500"><tspan x="6.08" y="19">الصفحات</tspan></text>
        <text id="الرئيسية" transform="translate(1139 8274)" fill="#7d6b91" font-size="16" font-family="DINNextLTArabic-Regular, DIN Next LT Arabic"><tspan x="13.936" y="19">الرئيسية</tspan></text>
        <text id="مميزات_التطبيق" data-name="مميزات التطبيق" transform="translate(1097 8378)" fill="#7d6b91" font-size="16" font-family="DINNextLTArabic-Regular, DIN Next LT Arabic"><tspan x="8.64" y="19">مميزات التطبيق</tspan></text>
        <text id="تحميل_التطبيق" data-name="تحميل التطبيق" transform="translate(1105 8326)" fill="#7d6b91" font-size="16" font-family="DINNextLTArabic-Regular, DIN Next LT Arabic"><tspan x="7.68" y="19">تحميل التطبيق</tspan></text>
      </g>
      <g id="Group_52118" data-name="Group 52118" transform="translate(-119.5 6)">
        <text id="روابط_اخري" data-name="روابط اخري" transform="translate(857 8222)" fill="#fff" font-size="16" font-family="DINNextLTArabic-Medium, DIN Next LT Arabic" font-weight="500"><tspan x="4.288" y="19">روابط اخري</tspan></text>
        <text id="سياسة_الخصوصية" data-name="سياسة الخصوصية" transform="translate(806 8274)" fill="#7d6b91" font-size="16" font-family="DINNextLTArabic-Regular, DIN Next LT Arabic"><tspan x="15.672" y="19">سياسة الخصوصية</tspan></text>
        <text id="طريقه_الاستخدام" data-name="طريقه الاستخدام" transform="translate(806 8326)" fill="#7d6b91" font-size="16" font-family="DINNextLTArabic-Regular, DIN Next LT Arabic"><tspan x="20.12" y="19">طريقه الاستخدام</tspan></text>
        <text id="اراء_العملاء" data-name="اراء العملاء" transform="translate(858 8378)" fill="#7d6b91" font-size="16" font-family="DINNextLTArabic-Regular, DIN Next LT Arabic"><tspan x="6.744" y="19">اراء العملاء</tspan></text>
      </g>
      <g id="Group_52117" data-name="Group 52117" transform="translate(-116.5 6)">
        <text id="اتصل_بنا_" data-name="اتصل بنا " transform="translate(570 8222)" fill="#fff" font-size="16" font-family="DINNextLTArabic-Medium, DIN Next LT Arabic" font-weight="500"><tspan x="13.536" y="19">اتصل بنا</tspan><tspan y="19"> </tspan></text>
        <text id="_200000000" data-name="+200000000" transform="translate(518 8274)" fill="#7a659b" font-size="16" font-family="DINNextLTArabic-Medium, DIN Next LT Arabic" font-weight="500"><tspan x="3.16" y="19">+200000000</tspan></text>
        <text id="something_dondorma.com" data-name="something@dondorma.com" transform="translate(415 8326)" fill="#7a659b" font-size="16" font-family="DINNextLTArabic-Medium, DIN Next LT Arabic" font-weight="500"><tspan x="1.008" y="19">something@dondorma.com</tspan></text>
        <text id="القاهرة_-المعادي" data-name="القاهرة -المعادي" transform="translate(495 8378)" fill="#7a659b" font-size="16" font-family="DINNextLTArabic-Medium, DIN Next LT Arabic" font-weight="500"><tspan x="8.096" y="19">القاهرة -المعادي</tspan></text>
        <g id="Mask_Group_5" data-name="Mask Group 5" transform="translate(96 1267)" clip-path="url(#clip-path-3)">
          <g id="call" transform="translate(518 7009)">
            <g id="Group_52079" data-name="Group 52079">
              <path id="Path_1417" data-name="Path 1417" d="M16.556,11.815a10.22,10.22,0,0,1-3.209-.511,1.467,1.467,0,0,0-1.427.3L9.9,13.132A11.185,11.185,0,0,1,4.867,8.1L6.35,6.133a1.455,1.455,0,0,0,.358-1.474,10.235,10.235,0,0,1-.513-3.215A1.446,1.446,0,0,0,4.75,0H1.444A1.446,1.446,0,0,0,0,1.444,16.574,16.574,0,0,0,16.556,18,1.446,1.446,0,0,0,18,16.556v-3.3A1.446,1.446,0,0,0,16.556,11.815Z" fill="#7a659b"/>
            </g>
          </g>
        </g>
        <g id="Mask_Group_4" data-name="Mask Group 4" transform="translate(96 1270)" clip-path="url(#clip-path-4)">
          <g id="envelope" transform="translate(518 7061)">
            <g id="Group_52078" data-name="Group 52078">
              <g id="Group_52077" data-name="Group 52077">
                <path id="Path_1415" data-name="Path 1415" d="M.376,3.345c2.47,2.092,6.805,5.773,8.079,6.921a.753.753,0,0,0,1.089,0c1.275-1.149,5.61-4.83,8.08-6.922a.375.375,0,0,0,.053-.517A1.489,1.489,0,0,0,16.5,2.25H1.5a1.489,1.489,0,0,0-1.177.578A.375.375,0,0,0,.376,3.345Z" fill="#7a659b"/>
                <path id="Path_1416" data-name="Path 1416" d="M17.782,4.479a.373.373,0,0,0-.4.054c-2.74,2.322-6.236,5.3-7.336,6.291a1.519,1.519,0,0,1-2.093,0C6.78,9.767,2.854,6.429.617,4.533A.375.375,0,0,0,0,4.819V14.25a1.5,1.5,0,0,0,1.5,1.5h15a1.5,1.5,0,0,0,1.5-1.5V4.819A.375.375,0,0,0,17.782,4.479Z" fill="#7a659b"/>
              </g>
            </g>
          </g>
        </g>
        <g id="Mask_Group_3" data-name="Mask Group 3" transform="translate(96 1273)" clip-path="url(#clip-path-5)">
          <g id="pin" transform="translate(518 7107)">
            <path id="Path_1414" data-name="Path 1414" d="M14.329,3.082A6.108,6.108,0,0,0,9.138,0c-.092,0-.185,0-.277,0a6.108,6.108,0,0,0-5.19,3.081,6.266,6.266,0,0,0-.082,6.192l4.464,8.17.006.011a1.085,1.085,0,0,0,1.882,0l.006-.011,4.464-8.17a6.267,6.267,0,0,0-.082-6.192ZM9,8.156a2.531,2.531,0,1,1,2.531-2.531A2.534,2.534,0,0,1,9,8.156Z" fill="#7a659b"/>
          </g>
        </g>
      </g>
      <g id="Group_52127" data-name="Group 52127" transform="translate(-116.5 6)">
        <g id="Group_24568" data-name="Group 24568" transform="translate(1409.459 8130.399)">
          <path id="Path_13514" data-name="Path 13514" d="M153.4,244.492a5.746,5.746,0,0,1-5.3,4.761,3.758,3.758,0,0,1-3.975-4.462,5.748,5.748,0,0,1,5.3-4.761,3.758,3.758,0,0,1,3.973,4.462" transform="translate(-26.478 -94.663)" fill="#fdfdfd"/>
          <path id="Path_13515" data-name="Path 13515" d="M191.353,244.492a5.748,5.748,0,0,1-5.3,4.761,3.758,3.758,0,0,1-3.973-4.462,5.748,5.748,0,0,1,5.3-4.761,3.758,3.758,0,0,1,3.975,4.462" transform="translate(-49.034 -94.663)" fill="#fdfdfd"/>
          <path id="Path_13516" data-name="Path 13516" d="M137.678,142.29h-18.4c-2.341.163-3.24-.851-2.8-3.152l4.179-23.69a4.367,4.367,0,0,1,3.768-3.921,76.107,76.107,0,0,1,16.227-.01c8.6,2.47,6.117,18.462-10.228,18.444.547-3.33,1.09-6.146,4.233-6.143,3.812,0,5-6.143,1.351-6.143h-7.145c-1.889,0-2.555,1.036-2.856,2.732l-2.343,13.286c-.48,1.764.369,2.549,2.124,2.482,8.156-.3,13.346.085,20.547-3.843,6.027-3.287,10.476-8.228,11.08-14.647,1.6-17-24.574-16.145-37.169-13.412a4.929,4.929,0,0,0-4.575,4.575l-4.98,28.232c-8.775-6.847-12.649-15.423-10.629-26.94a46.38,46.38,0,0,1,10.283-22,58.492,58.492,0,0,1,7.43-7.4c.49.026.98.046,1.482.059a56.155,56.155,0,0,0-5.671,7.543c-5.359,8.6-8.024,17.831-6.707,27.938.475.07.8.145,1.278.221l2.31-13.1c.577-3.268,2.237-4.738,5.681-5.408,14.734-2.882,28.573-3.549,41.967,2.287,24.631,10.724,5.1,42.006-20.44,42.006" transform="translate(0 0)" fill="#fdfdfd"/>
          <path id="Path_13517" data-name="Path 13517" d="M349.74,166.689a2.09,2.09,0,0,0-1.456.636,2.637,2.637,0,0,0-.836,1.511,1.926,1.926,0,0,0,.163,1.361,1.062,1.062,0,0,0,.98.516q1.4,0,1.822-2.369a2.663,2.663,0,0,0,.026-1.307.694.694,0,0,0-.7-.355m2.97-10.174a7.39,7.39,0,0,1,4.91,1.547,3.565,3.565,0,0,1,1.245,1.89,7.189,7.189,0,0,1-.072,2.928l-.49,2.614a9.187,9.187,0,0,0-.234,3.532.916.916,0,0,0,.286.49,2.113,2.113,0,0,0,.7.191c.361.059.5.306.428.737a3.6,3.6,0,0,1-.98,1.758,7.352,7.352,0,0,1-2.016,1.529,6.193,6.193,0,0,1-2.9.774,2.985,2.985,0,0,1-2.693-1.266c-.2-.3-.394-.456-.609-.456a2.142,2.142,0,0,0-1.006.438,7.577,7.577,0,0,1-4.215,1.284,5.617,5.617,0,0,1-3.552-.98,3.62,3.62,0,0,1-1.176-1.7,4.286,4.286,0,0,1-.163-2.183,5.379,5.379,0,0,1,2.047-3.24,11.2,11.2,0,0,1,7.287-2.232,2.776,2.776,0,0,0,1.318-.2,1.412,1.412,0,0,0,.425-.943,6.643,6.643,0,0,0,.092-2.7,1.059,1.059,0,0,0-1.119-.833,1.761,1.761,0,0,0-1,.317A7.109,7.109,0,0,0,348,160.97a5.316,5.316,0,0,1-3.663,2.232,1.668,1.668,0,0,1-1.307-.51,1.508,1.508,0,0,1-.31-1.332,3.267,3.267,0,0,1,.98-1.691,7.588,7.588,0,0,1,2.1-1.47,15.663,15.663,0,0,1,6.914-1.685Zm-35.769.144c.672,0,.918.474.752,1.421a3.01,3.01,0,0,1-.054.3c-.041.193-.077.337-.1.456-.111.631.025.948.4.948.2,0,.549-.258,1.064-.756a8.534,8.534,0,0,1,2.7-1.733,7.959,7.959,0,0,1,3.063-.636,3.462,3.462,0,0,1,3.7,2.142c.191.529.389.792.58.792a3.185,3.185,0,0,0,1.036-.7,8.629,8.629,0,0,1,5.576-2.232,4.678,4.678,0,0,1,3.495,1.242,4.248,4.248,0,0,1,.817,3.9c-.065.373-.172,1.008-.364,1.9-.065.306-.252,1.224-.523,2.759-.173.98-.3,1.68-.384,2.077-.052.245-.091.42-.111.528a2.632,2.632,0,0,0,.355,1.961,5.239,5.239,0,0,1,.4.678.848.848,0,0,1,.018.444q-.4,2.25-5.689,2.256a9.69,9.69,0,0,1-3.674-.564c-.889-.374-1.274-.869-1.168-1.47a1.394,1.394,0,0,1,.191-.541c.082-.119.361-.448.843-.972a12.761,12.761,0,0,0,1.392-4.8,11.111,11.111,0,0,0,.253-3.305,1.222,1.222,0,0,0-1.353-1.1,1.858,1.858,0,0,0-1.095.361,2.124,2.124,0,0,0-.748.905,19.55,19.55,0,0,0-.768,3.372,25.326,25.326,0,0,0-.448,3.594,4.738,4.738,0,0,0,.578,1.758,1.08,1.08,0,0,1,.057.665q-.368,2.088-5.834,2.095a12.34,12.34,0,0,1-4.341-.49,1.144,1.144,0,0,1-.675-1.374,1.39,1.39,0,0,1,.224-.618,9.078,9.078,0,0,1,.928-.8,2.4,2.4,0,0,0,.621-.7,5.679,5.679,0,0,0,.377-1.188c.31-1.289.582-2.585.817-3.9q.608-3.446-1.144-3.444a1.856,1.856,0,0,0-1.825,1.47,29.249,29.249,0,0,0-.91,3.972,25.086,25.086,0,0,0-.369,2.531,3.2,3.2,0,0,0,.212,1.248,2.462,2.462,0,0,1,.2,1.23q-.2,1.144-1.881,1.578a15.529,15.529,0,0,1-3.911.48,12.518,12.518,0,0,1-3.9-.431c-.794-.289-1.134-.743-1.026-1.363a1.239,1.239,0,0,1,.268-.6,7.315,7.315,0,0,1,.905-.774,3.594,3.594,0,0,0,1.261-1.985c.389-1.451.714-2.957.988-4.517a11.164,11.164,0,0,0,.248-2.328,1.5,1.5,0,0,0-.526-1.062,2.549,2.549,0,0,1-.568-.618.909.909,0,0,1-.049-.577c.139-.786.866-1.418,2.176-1.866a24.6,24.6,0,0,1,6.932-1.611Zm-19.171-.018c.624,0,.98.087,1.086.265a4.3,4.3,0,0,1,.069,1.686c-.034.515.1.774.4.774a1.109,1.109,0,0,0,.761-.51,5.173,5.173,0,0,1,4.058-2.2,2.928,2.928,0,0,1,2.433,1.031,3.162,3.162,0,0,1,.578,1.307,3.944,3.944,0,0,1,.047,1.536,4.847,4.847,0,0,1-.683,1.7,5.619,5.619,0,0,1-1.253,1.428,4.575,4.575,0,0,1-2.941,1.073,2.863,2.863,0,0,1-1.449-.319,5.8,5.8,0,0,1-1.364-1.278.846.846,0,0,0-.618-.372.792.792,0,0,0-.738.552,12.179,12.179,0,0,0-.562,2.333,21.737,21.737,0,0,0-.446,3.617,1.144,1.144,0,0,0,.212.732,2.205,2.205,0,0,0,.869.408c1,.314,1.431.869,1.292,1.655a2.16,2.16,0,0,1-.73,1.253,3.1,3.1,0,0,1-1.482.714,27,27,0,0,1-5.017.355,14.594,14.594,0,0,1-4.63-.546,1.441,1.441,0,0,1-1.144-1.7,2.513,2.513,0,0,1,1.338-1.634,3.657,3.657,0,0,0,.817-.606,2.2,2.2,0,0,0,.4-.75,45.144,45.144,0,0,0,1.32-5.921,2.556,2.556,0,0,0,.026-1.134.98.98,0,0,0-.6-.552c-.776-.327-1.106-.8-1-1.421a2.2,2.2,0,0,1,1.114-1.451,12.806,12.806,0,0,1,3.1-1.206,18.515,18.515,0,0,1,4.73-.812Zm-20.617,3.941a1.788,1.788,0,0,0-1.336.57,2.765,2.765,0,0,0-.735,1.518,14.029,14.029,0,0,0-.111,2.874,20.054,20.054,0,0,0,.373,3.227c.2.957.7,1.439,1.521,1.439q1.565,0,1.916-1.985a16.242,16.242,0,0,0,.194-3.354,12.344,12.344,0,0,0-.42-3.058,1.47,1.47,0,0,0-1.4-1.23Zm2.124-4.062a8.425,8.425,0,0,1,5.344,1.668,6.893,6.893,0,0,1,2.247,3.114,7.892,7.892,0,0,1,.355,4.181,9.894,9.894,0,0,1-4.64,6.484,14.242,14.242,0,0,1-8.1,2.55,8.214,8.214,0,0,1-6.372-2.389,6.738,6.738,0,0,1-1.47-6.045,10.5,10.5,0,0,1,4.285-6.785,13.637,13.637,0,0,1,8.35-2.777Zm36.878-14.265-.845,6.184a2.287,2.287,0,0,0,.039,1.037,6.47,6.47,0,0,0,.853,1.284.989.989,0,0,1,.124.792,2.1,2.1,0,0,1-1.676,1.614,18.976,18.976,0,0,1-5.035.462,9.042,9.042,0,0,1-3.351-.425,1.212,1.212,0,0,1-.788-1.421,1.109,1.109,0,0,1,.2-.516,10.2,10.2,0,0,1,.846-.817q.832-.738,1.568-4.919a8.237,8.237,0,0,0,.069-3.594,1.4,1.4,0,0,0-1.521-.93,2.062,2.062,0,0,0-1.753.756,6.84,6.84,0,0,0-.921,2.742l-.614,3.478a5.23,5.23,0,0,0-.119,1.421,7.165,7.165,0,0,0,.606,1.493,1.239,1.239,0,0,1,.064.725q-.181,1.034-1.709,1.524a16.091,16.091,0,0,1-4.588.49q-4.884-.01-4.526-2.021a1.3,1.3,0,0,1,.263-.642,3.959,3.959,0,0,1,.817-.624,1.878,1.878,0,0,0,.717-.768,15.079,15.079,0,0,0,.6-2.124c.327-1.332.608-2.735.866-4.2a4.287,4.287,0,0,0,.095-1.59,2.306,2.306,0,0,0-.9-.923,1.121,1.121,0,0,1-.552-1.158,1.709,1.709,0,0,1,.817-1.144,14.067,14.067,0,0,1,2.732-1.134c1.2-.4,2.338-.737,3.431-1.013a11.108,11.108,0,0,1,2.214-.408.962.962,0,0,1,.817.384,1.129,1.129,0,0,1,.2.912c0,.036-.039.186-.09.444a2.124,2.124,0,0,0-.062.245c-.1.557.085.84.554.84.283,0,.614-.222,1.011-.667a6.066,6.066,0,0,1,4.782-2.178,5.361,5.361,0,0,1,3.594,1.158,3.527,3.527,0,0,1,1.2,1.943,10.386,10.386,0,0,1-.034,3.284Zm-32.607-2.441a1.828,1.828,0,0,0-1.336.57,2.778,2.778,0,0,0-.735,1.518,14,14,0,0,0-.111,2.874,19.166,19.166,0,0,0,.373,3.227c.191.961.7,1.439,1.523,1.439q1.565,0,1.916-1.985a16.208,16.208,0,0,0,.2-3.354,12.514,12.514,0,0,0-.42-3.058,1.482,1.482,0,0,0-1.4-1.23Zm2.124-4.062a8.416,8.416,0,0,1,5.344,1.668,6.92,6.92,0,0,1,2.246,3.114,7.939,7.939,0,0,1,.355,4.181,9.9,9.9,0,0,1-4.642,6.484,14.256,14.256,0,0,1-8.1,2.549,8.208,8.208,0,0,1-6.372-2.387,6.733,6.733,0,0,1-1.47-6.045,10.487,10.487,0,0,1,4.285-6.785,13.614,13.614,0,0,1,8.352-2.779Z" transform="translate(-99.233 -32.685)" fill="#fdfdfd"/>
        </g>
        <text id="تطبيق_دوندورما_للمثلجات_اسرع_توصيل_في_مصر_حمل_نسختك_الخاصة_ان_كنت_عميل_او_تاجر." data-name="تطبيق دوندورما للمثلجات, اسرع توصيل في مصر حمل نسختك الخاصة ان كنت عميل او تاجر." transform="translate(1440 8300)" fill="#fff" font-size="16" font-family="DINNextLTArabic-Regular, DIN Next LT Arabic"><tspan x="10.8" y="19">تطبيق دوندورما للمثلجات, اسرع توصيل في مصر</tspan><tspan y="19"> </tspan><tspan x="50.192" y="42">حمل نسختك الخاصة ان كنت عميل او تاجر</tspan><tspan y="42">.</tspan></text>
        <g id="Group_52085" data-name="Group 52085" transform="translate(-15 1264)">
          <g id="Group_52084" data-name="Group 52084" transform="translate(29 1)">
            <g id="Mask_Group_6" data-name="Mask Group 6" transform="translate(1 -1)" clip-path="url(#clip-path-6)">
              <path id="facebook_1_" data-name="facebook (1)" d="M16,3.985h2.191V.169A28.292,28.292,0,0,0,15,0C11.837,0,9.673,1.987,9.673,5.639V9H6.187v4.266H9.673V24h4.274V13.267h3.345L17.823,9H13.946V6.062c0-1.233.333-2.077,2.051-2.077Z" transform="translate(1451.813 7114)" fill="#fdfdfd"/>
            </g>
            <g id="Ellipse_124" data-name="Ellipse 124" transform="translate(1447 7107)" fill="none" stroke="#f5f5f5" stroke-width="1">
              <circle cx="17.5" cy="17.5" r="17.5" stroke="none"/>
              <circle cx="17.5" cy="17.5" r="17" fill="none"/>
            </g>
          </g>
          <g id="Group_52083" data-name="Group 52083" transform="translate(36 1)">
            <g id="Mask_Group_8" data-name="Mask Group 8" transform="translate(-16 -1)" clip-path="url(#clip-path-7)">
              <g id="twitter" transform="translate(1536 7114)">
                <g id="Group_52080" data-name="Group 52080">
                  <path id="Path_1419" data-name="Path 1419" d="M24,4.559a10.258,10.258,0,0,1-2.835.777,4.893,4.893,0,0,0,2.164-2.72,9.833,9.833,0,0,1-3.12,1.191A4.92,4.92,0,0,0,11.7,7.172a5.066,5.066,0,0,0,.114,1.122A13.927,13.927,0,0,1,1.671,3.147,4.922,4.922,0,0,0,3.183,9.723,4.859,4.859,0,0,1,.96,9.117v.054A4.943,4.943,0,0,0,4.9,14.005a4.911,4.911,0,0,1-1.29.162,4.35,4.35,0,0,1-.932-.084,4.967,4.967,0,0,0,4.6,3.427,9.886,9.886,0,0,1-6.1,2.1A9.216,9.216,0,0,1,0,19.542,13.852,13.852,0,0,0,7.548,21.75a13.907,13.907,0,0,0,14-14c0-.217-.007-.427-.018-.636A9.816,9.816,0,0,0,24,4.559Z" fill="#fdfdfd"/>
                </g>
              </g>
            </g>
            <g id="Ellipse_124-2" data-name="Ellipse 124" transform="translate(1514 7107)" fill="none" stroke="#f5f5f5" stroke-width="1">
              <circle cx="17.5" cy="17.5" r="17.5" stroke="none"/>
              <circle cx="17.5" cy="17.5" r="17" fill="none"/>
            </g>
          </g>
          <g id="Group_52082" data-name="Group 52082" transform="translate(12 1)">
            <g id="Mask_Group_9" data-name="Mask Group 9" transform="translate(-13 -1)" clip-path="url(#clip-path-8)">
              <g id="instagram" transform="translate(1703.981 7114)">
                <path id="Path_1420" data-name="Path 1420" d="M23.955,7.056A8.77,8.77,0,0,0,23.4,4.144,6.148,6.148,0,0,0,19.886.633,8.792,8.792,0,0,0,16.974.075C15.69.014,15.282,0,12.023,0S8.357.014,7.077.07A8.772,8.772,0,0,0,4.166.628,5.856,5.856,0,0,0,2.037,2.016,5.909,5.909,0,0,0,.654,4.14,8.793,8.793,0,0,0,.1,7.051C.035,8.336.021,8.744.021,12s.014,3.666.07,4.946A8.769,8.769,0,0,0,.649,19.86a6.147,6.147,0,0,0,3.512,3.512,8.793,8.793,0,0,0,2.912.558c1.28.056,1.688.07,4.946.07s3.666-.014,4.946-.07a8.768,8.768,0,0,0,2.911-.558,6.139,6.139,0,0,0,3.512-3.512,8.8,8.8,0,0,0,.558-2.912c.056-1.28.07-1.688.07-4.946s0-3.666-.061-4.946Zm-2.161,9.8a6.578,6.578,0,0,1-.413,2.227A3.981,3.981,0,0,1,19.1,21.361a6.6,6.6,0,0,1-2.227.412c-1.266.056-1.646.07-4.848.07s-3.587-.014-4.848-.07a6.575,6.575,0,0,1-2.227-.412,3.693,3.693,0,0,1-1.378-.9,3.731,3.731,0,0,1-.9-1.378,6.6,6.6,0,0,1-.412-2.227c-.056-1.266-.07-1.646-.07-4.848s.014-3.587.07-4.848a6.575,6.575,0,0,1,.412-2.227,3.648,3.648,0,0,1,.9-1.379,3.726,3.726,0,0,1,1.378-.9A6.606,6.606,0,0,1,7.185,2.25c1.266-.056,1.646-.07,4.848-.07s3.587.014,4.848.07a6.578,6.578,0,0,1,2.227.413,3.69,3.69,0,0,1,1.378.9,3.731,3.731,0,0,1,.9,1.379,6.6,6.6,0,0,1,.413,2.227c.056,1.266.07,1.646.07,4.848s-.014,3.577-.07,4.843Zm0,0" fill="#fdfdfd"/>
                <path id="Path_1421" data-name="Path 1421" d="M12.023,5.837A6.165,6.165,0,1,0,18.189,12,6.167,6.167,0,0,0,12.023,5.837Zm0,10.165a4,4,0,1,1,4-4,4,4,0,0,1-4,4Zm0,0" fill="#fdfdfd"/>
                <path id="Path_1422" data-name="Path 1422" d="M19.872,5.593a1.439,1.439,0,1,1-1.439-1.439,1.439,1.439,0,0,1,1.439,1.439Zm0,0" fill="#fdfdfd"/>
              </g>
            </g>
            <g id="Ellipse_124-3" data-name="Ellipse 124" transform="translate(1685 7107)" fill="none" stroke="#f5f5f5" stroke-width="1">
              <circle cx="17.5" cy="17.5" r="17.5" stroke="none"/>
              <circle cx="17.5" cy="17.5" r="17" fill="none"/>
            </g>
          </g>
          <g id="Group_52081" data-name="Group 52081" transform="translate(11 1)">
            <g id="Mask_Group_7" data-name="Mask Group 7" transform="translate(-2 -1)" clip-path="url(#clip-path-9)">
              <path id="pinterest" d="M12.326,0C5.747,0,2.25,4.216,2.25,8.812c0,2.131,1.191,4.79,3.1,5.633.544.245.472-.054.94-1.844a.425.425,0,0,0-.1-.417C3.46,9.031,5.654,2.549,11.937,2.549c9.093,0,7.394,12.582,1.582,12.582A2.146,2.146,0,0,1,11.258,12.5c.428-1.733,1.266-3.6,1.266-4.845,0-3.148-4.69-2.681-4.69,1.49A5.046,5.046,0,0,0,8.29,11.3S6.781,17.4,6.5,18.539a16.177,16.177,0,0,0,.111,5.318.158.158,0,0,0,.288.073,18.858,18.858,0,0,0,2.484-4.678c.186-.685.949-3.465.949-3.465a4.146,4.146,0,0,0,3.5,1.668c4.6,0,7.918-4.04,7.918-9.053C21.733,3.6,17.62,0,12.326,0Z" transform="translate(1620 7114)" fill="#fdfdfd"/>
            </g>
            <g id="Ellipse_124-4" data-name="Ellipse 124" transform="translate(1612 7107)" fill="none" stroke="#f5f5f5" stroke-width="1">
              <circle cx="17.5" cy="17.5" r="17.5" stroke="none"/>
              <circle cx="17.5" cy="17.5" r="17" fill="none"/>
            </g>
          </g>
        </g>
      </g>
    </g>
  </g>
</svg>
