<svg xmlns="http://www.w3.org/2000/svg" width="118" height="118" viewBox="0 0 118 118">
  <g id="Group_52136" data-name="Group 52136" transform="translate(-259 -683)">
    <circle id="Ellipse_121" data-name="Ellipse 121" cx="59" cy="59" r="59" transform="translate(259 683)" fill="#fb6158"/>
    <g id="Component_1_2" data-name="Component 1 – 2" transform="translate(305 712)">
      <g id="Group_52066" data-name="Group 52066" transform="translate(-4355.86 -7704.788)">
        <path id="Path_1327" data-name="Path 1327" d="M47.68,299.44H39.46A8.52,8.52,0,0,1,31,290.93V267.71a8.52,8.52,0,0,1,8.51-8.51h8.22a8.51,8.51,0,0,1,8.5,8.51v23.22a8.51,8.51,0,0,1-8.55,8.51Zm-8.22-38.27a6.54,6.54,0,0,0-6.54,6.54v23.22a6.54,6.54,0,0,0,6.54,6.54h8.22a6.55,6.55,0,0,0,6.54-6.54V267.71a6.55,6.55,0,0,0-6.54-6.54Z" transform="translate(4324.86 7445.587)" fill="#f9f9f9"/>
        <path id="Path_1328" data-name="Path 1328" d="M43.57,291.71a3.92,3.92,0,0,1-3.91-3.91v-17a3.91,3.91,0,0,1,7.81,0v17a3.91,3.91,0,0,1-3.9,3.91Zm0-22.81a1.94,1.94,0,0,0-1.94,1.93v17a1.94,1.94,0,1,0,3.88,0v-17a1.94,1.94,0,0,0-1.94-1.93Z" transform="translate(4324.86 7445.587)" fill="#f9f9f9"/>
        <path id="Path_1329" data-name="Path 1329" d="M43.57,319.79a6.16,6.16,0,0,1-6-6.29,6.78,6.78,0,0,1,.26-1.85A35.2,35.2,0,0,0,39,301.59v-3.14a1,1,0,0,1,1-1h7.14a1,1,0,0,1,1,1v3.14a35.56,35.56,0,0,0,1.2,10.06,6.42,6.42,0,0,1,.27,1.85,6.16,6.16,0,0,1-6.04,6.29ZM41,299.44v2.15a37.31,37.31,0,0,1-1.28,10.62,4.68,4.68,0,0,0-.19,1.29,4.06,4.06,0,1,0,8.11,0,4.67,4.67,0,0,0-.18-1.29,37,37,0,0,1-1.28-10.62v-2.15Z" transform="translate(4324.86 7445.587)" fill="#f9f9f9"/>
      </g>
    </g>
  </g>
</svg>
