<svg xmlns="http://www.w3.org/2000/svg" xmlns:xlink="http://www.w3.org/1999/xlink" width="166" height="166" viewBox="0 0 166 166">
  <defs>
    <clipPath id="clip-path">
      <rect id="Rectangle_39" data-name="Rectangle 39" width="60" height="60" transform="translate(329 1564)" fill="#fdfdfd" stroke="#707070" stroke-width="1"/>
    </clipPath>
  </defs>
  <g id="Group_52142" data-name="Group 52142" transform="translate(-276 -1512)">
    <circle id="Ellipse_129" data-name="Ellipse 129" cx="83" cy="83" r="83" transform="translate(276 1512)" fill="#fb6158"/>
    <g id="Mask_Group_15" data-name="Mask Group 15" clip-path="url(#clip-path)">
      <g id="hand-graving-smartphone" transform="translate(328.999 1564)">
        <g id="Group_52133" data-name="Group 52133">
          <path id="Path_1446" data-name="Path 1446" d="M55.74,27.569H48.961a3.2,3.2,0,0,0-3.2,3.207v.348a3.2,3.2,0,0,0,3.2,3.209H55.74a3.212,3.212,0,0,0,3.209-3.209l0-.352A3.2,3.2,0,0,0,55.74,27.569Z" fill="#fdfdfd"/>
          <path id="Path_1447" data-name="Path 1447" d="M55.743,19.568H54.331V4.054A4.065,4.065,0,0,0,50.277,0H23.527a4.066,4.066,0,0,0-4.054,4.054V15.185c-5.4,3.05-10.961,6.236-10.973,6.244-3.021,1.243-7.447,5.255-7.447,14.728a22.863,22.863,0,0,0,.134,2.381c.025.221.052.433.082.647q.117.831.292,1.588c.042.18.074.367.12.539a15.623,15.623,0,0,0,.542,1.648c.1.258.214.492.326.734s.241.5.37.738c.15.282.3.553.464.811.039.06.082.115.122.176,3.9,5.9,11.1,5.924,11.1,5.924h4.869v4.606A4.065,4.065,0,0,0,23.527,60H50.276a4.065,4.065,0,0,0,4.055-4.051V50.331h.618v0h.789a3.2,3.2,0,0,0,3.208-3.208l0-.349a3.206,3.206,0,0,0-3.209-3.2H48.961a3.2,3.2,0,0,0-3.2,3.2v.355a3.207,3.207,0,0,0,3.2,3.205H51.51V52.5H22.293V23.4c1.468-.931,2.827-1.826,3.6-2.427,3.926-3.036,7.653-5.455,8.157-7.648.657-2.845-1.528-5.243-5.317-3.274-1.194.62-3.644,1.979-6.442,3.55V6.424l29.217,0V19.566H49.76v0h-.8a3.208,3.208,0,0,0-3.209,3.209v.348a3.2,3.2,0,0,0,3.205,3.2h6.781a3.2,3.2,0,0,0,3.2-3.2v-.357A3.2,3.2,0,0,0,55.743,19.568ZM36.9,53.926a2.027,2.027,0,1,1-2.023,2.028A2.026,2.026,0,0,1,36.9,53.926ZM41.182,3.9h-8.56a.49.49,0,1,1,0-.98h8.56a.49.49,0,0,1,0,.98Z" fill="#fdfdfd"/>
          <path id="Path_1448" data-name="Path 1448" d="M55.74,35.569H48.961a3.209,3.209,0,0,0-3.205,3.208v.351a3.2,3.2,0,0,0,3.205,3.205h6.777a3.207,3.207,0,0,0,3.208-3.205v-.351A3.206,3.206,0,0,0,55.74,35.569Z" fill="#fdfdfd"/>
        </g>
      </g>
    </g>
  </g>
</svg>
