<svg xmlns="http://www.w3.org/2000/svg" xmlns:xlink="http://www.w3.org/1999/xlink" width="941" height="1092" viewBox="0 0 941 1092">
  <defs>
    <clipPath id="clip-path">
      <rect id="Rectangle_40" data-name="Rectangle 40" width="941" height="1092" transform="translate(979 2041)" fill="#fff" stroke="#707070" stroke-width="1"/>
    </clipPath>
  </defs>
  <g id="Mask_Group_16" data-name="Mask Group 16" transform="translate(-979 -2041)" clip-path="url(#clip-path)">
    <g id="Group_52099" data-name="Group 52099" transform="translate(0 -2268.5)">
      <g id="Group_52092" data-name="Group 52092" transform="translate(0 -424.5)">
        <path id="Path_1403" data-name="Path 1403" d="M533.5,0A521.044,521.044,0,0,1,768.063,55.468c12.254,6.158,124.064,104.682,168.817,129.412,100.514,55.543,439.992-28.806,609.493,60.091C1732.387,342.528,1668.6,531.346,1773,564.311c372.407,117.588,322.773-67.166,322.773,63.524,0,108.411-93.1,166.365-413.768,221.478-195.372,33.578-614.019,71.992-745.126,103.013-61.415,14.531-118.866,56.549-143.314,70.521A521.993,521.993,0,0,1,533.5,1092C238.856,1092,0,847.547,0,546S238.856,0,533.5,0Z" transform="translate(960 4746)" fill="rgba(18,0,50,0.48)" opacity="0.08"/>
        <g id="Group_52095" data-name="Group 52095" transform="translate(0 -99.579)">
          <g id="Group_52093" data-name="Group 52093" transform="translate(1108.36 5245.503)">
            <g id="Group_52059" data-name="Group 52059" transform="translate(53.295 291.465)">
              <path id="Path_1406" data-name="Path 1406" d="M13.892,0A13.892,13.892,0,1,1,0,13.892,13.892,13.892,0,0,1,13.892,0Z" transform="translate(3.536 12.939)" fill="#fb6158"/>
              <path id="Path_1361" data-name="Path 1361" d="M457.8,246.784a5.746,5.746,0,0,1-5.746-5.746V220.263A1.263,1.263,0,0,1,453.313,219h9.03a1.263,1.263,0,0,1,1.263,1.263v20.8a5.759,5.759,0,0,1-5.809,5.721Zm-3.284-25.258v19.563a3.271,3.271,0,1,0,6.542,0V221.526Z" transform="translate(-440.393 -170.699)" fill="#430596"/>
              <path id="Path_1362" data-name="Path 1362" d="M455.421,218.169a5.494,5.494,0,0,1-4.433-2.665c-1.831-2.526-3.309-1.894-6.239.088a1.235,1.235,0,0,1-1.92-1.023v-7.451a1.263,1.263,0,0,1,.543-1.036c2.311-1.566,6.188-4.18,9.636.493,1.857,2.526,3.271,1.932,6.529-.29,2.741-1.856,6.479-4.395,9.926.29,1.844,2.526,3.321,1.882,6.251-.088a1.225,1.225,0,0,1,1.92,1.023v7.451a1.263,1.263,0,0,1-.543,1.023c-2.311,1.566-6.188,4.193-9.636-.48-1.856-2.526-3.271-1.932-6.529.29C459.336,216.868,457.417,218.169,455.421,218.169Zm-6.883-6.794A5.481,5.481,0,0,1,453,214.026c1.857,2.526,3.271,1.92,6.529-.29,2.74-1.857,6.479-4.395,9.926.29,1.718,2.336,3.132,1.957,5.7.265v-4.546c-2.235,1.2-5.052,1.844-7.691-1.692-1.856-2.526-3.271-1.932-6.529.29-2.741,1.856-6.479,4.395-9.939-.29-1.718-2.336-3.119-1.958-5.7-.278v4.547a6.971,6.971,0,0,1,3.246-.947Z" transform="translate(-442.817 -174.667)" fill="#430596"/>
              <path id="Path_1363" data-name="Path 1363" d="M455.424,203.613a5.469,5.469,0,0,1-4.433-2.665c-1.831-2.526-3.309-1.882-6.239.1a1.263,1.263,0,0,1-1.932-1.036v-3.637a18.417,18.417,0,0,1,.568-4.483,1.263,1.263,0,0,1,.53-.733c1.844-1.263,5.683-3.789,9.08.859,1.856,2.526,3.271,1.932,6.529-.29,2.741-1.844,6.479-4.395,9.926.29,1.718,2.324,3.056,2.046,6,.088a1.234,1.234,0,0,1,1.907.808,17.172,17.172,0,0,1,.278,3.006v4.483a1.263,1.263,0,0,1-.543,1.036c-2.311,1.566-6.188,4.18-9.636-.493-1.856-2.526-3.271-1.92-6.529.29C459.339,202.312,457.419,203.613,455.424,203.613Zm-6.883-6.782A5.493,5.493,0,0,1,453,199.471c1.857,2.526,3.271,1.932,6.529-.29,2.74-1.856,6.479-4.395,9.926.29,1.718,2.336,3.132,1.958,5.7.278v-4.5c-2.147,1.149-5.052,1.869-7.679-1.718-1.856-2.526-3.271-1.92-6.529.29-2.741,1.856-6.479,4.395-9.939-.29-1.617-2.21-2.943-2.008-5.3-.518a15.845,15.845,0,0,0-.391,3.4v1.339a6.971,6.971,0,0,1,3.233-.922Z" transform="translate(-442.82 -178.499)" fill="#430596"/>
              <path id="Path_1364" data-name="Path 1364" d="M473.653,231.581H446.828a3.978,3.978,0,0,1-3.978-3.978V198.632a17.681,17.681,0,0,1,16.569-17.858,17.416,17.416,0,0,1,18.249,17.4V227.54a3.978,3.978,0,0,1-4.016,4.041Zm-14.2-48.319a15.155,15.155,0,0,0-14.208,15.37V227.54a1.5,1.5,0,0,0,1.579,1.515h26.862a1.5,1.5,0,0,0,1.49-1.5V198.177a14.915,14.915,0,0,0-15.723-14.915Z" transform="translate(-442.812 -180.754)" fill="#430596"/>
            </g>
            <g id="Group_52067" data-name="Group 52067">
              <path id="Path_1405" data-name="Path 1405" d="M35.362,0A35.362,35.362,0,1,1,0,35.362,35.362,35.362,0,0,1,35.362,0Z" transform="translate(0 18.943)" fill="#fb6158"/>
              <g id="Group_52057" data-name="Group 52057" transform="translate(11.366)">
                <path id="Path_1117" data-name="Path 1117" d="M152.445,74.139H118.194A4.107,4.107,0,0,1,114,70.033V62.187a4.107,4.107,0,0,1,4.107-4.107h34.338a4.124,4.124,0,0,1,4.107,4.107v7.846a4.107,4.107,0,0,1-4.107,4.107ZM118.194,61.523a.682.682,0,0,0-.682.664v7.846a.7.7,0,0,0,.682.682h34.251a.681.681,0,0,0,.664-.682V62.187a.664.664,0,0,0-.664-.664Z" transform="translate(-111.378 4.248)" fill="#430596"/>
                <path id="Path_1118" data-name="Path 1118" d="M143.764,98.879H124.14a4.683,4.683,0,0,1-4.613-4.037L115.8,67.25a1.748,1.748,0,0,1,1.747-1.94H150.4a1.747,1.747,0,0,1,1.747,1.94L148.43,94.843A4.666,4.666,0,0,1,143.764,98.879Zm-24.29-30.144,3.495,25.636a1.223,1.223,0,0,0,1.206,1.066h19.589a1.206,1.206,0,0,0,1.206-1.066l3.495-25.636Z" transform="translate(-110.037 9.652)" fill="#430596"/>
                <path id="Path_1119" data-name="Path 1119" d="M150.272,57.917a1.747,1.747,0,0,1-1.153-.454,20.428,20.428,0,0,0-27.82,0,1.748,1.748,0,0,1-2.516-.192,20.8,20.8,0,0,1-4.648-13.176,21.075,21.075,0,1,1,42.132,0,20.8,20.8,0,0,1-4.648,13.176,1.748,1.748,0,0,1-1.206.647ZM135.208,26.462a17.65,17.65,0,0,0-17.632,17.632,17.353,17.353,0,0,0,2.848,9.594,23.871,23.871,0,0,1,29.55,0,17.353,17.353,0,0,0,2.866-9.594,17.667,17.667,0,0,0-17.632-17.632Z" transform="translate(-111.285 -22.413)" fill="#430596"/>
                <path id="Path_1120" data-name="Path 1120" d="M153.758,76.726h-34.67a1.747,1.747,0,0,1-1.346-.647A23.7,23.7,0,0,1,112.5,61.068a23.976,23.976,0,0,1,47.934,0,23.608,23.608,0,0,1-5.242,15.011A1.747,1.747,0,0,1,153.758,76.726Zm-33.831-3.495H152.92A20.288,20.288,0,0,0,156.956,61a20.533,20.533,0,0,0-41.066,0,20.289,20.289,0,0,0,4.037,12.285Z" transform="translate(-112.5 -10.954)" fill="#430596"/>
              </g>
            </g>
            <g id="Group_52070" data-name="Group 52070" transform="translate(403.196 90.942)">
              <ellipse id="Ellipse_117" data-name="Ellipse 117" cx="13.261" cy="13.892" rx="13.261" ry="13.892" transform="translate(1.263 7.577)" fill="#fb6158"/>
              <g id="Group_52066" data-name="Group 52066">
                <path id="Path_1327" data-name="Path 1327" d="M49.656,300.926H40.462c-5.232-.034-9.456-3.973-9.462-8.824V268.024c.006-4.871,4.264-8.818,9.518-8.824h9.194c5.252.006,9.507,3.955,9.507,8.824V292.1a8.513,8.513,0,0,1-2.8,6.254A9.916,9.916,0,0,1,49.656,300.926Zm-9.194-39.683a7.063,7.063,0,0,0-7.315,6.782V292.1a7.063,7.063,0,0,0,7.315,6.781h9.194A7.074,7.074,0,0,0,56.97,292.1V268.024a7.074,7.074,0,0,0-7.315-6.781Z" transform="translate(-31 -259.2)" fill="#430596"/>
                <path id="Path_1328" data-name="Path 1328" d="M43.714,292.619a4.065,4.065,0,0,1-4.054-4.054V270.937a4.054,4.054,0,0,1,8.1,0v17.628A4.054,4.054,0,0,1,43.714,292.619Zm0-23.652a2.011,2.011,0,0,0-2.012,2V288.6a2.012,2.012,0,1,0,4.023,0V270.968a2.012,2.012,0,0,0-2.012-2Z" transform="translate(-29.658 -258.248)" fill="#430596"/>
                <path id="Path_1329" data-name="Path 1329" d="M43.792,320.615a6.387,6.387,0,0,1-6.222-6.522,7.03,7.03,0,0,1,.27-1.918,36.5,36.5,0,0,0,1.213-10.431v-3.256a1.037,1.037,0,0,1,1.037-1.037h7.4a1.037,1.037,0,0,1,1.037,1.037v3.256a36.873,36.873,0,0,0,1.244,10.431,6.657,6.657,0,0,1,.28,1.918,6.387,6.387,0,0,1-6.263,6.522Zm-2.665-21.1v2.229A38.686,38.686,0,0,1,39.8,312.755a4.853,4.853,0,0,0-.2,1.338,4.21,4.21,0,1,0,8.409,0,4.844,4.844,0,0,0-.187-1.338A38.366,38.366,0,0,1,46.5,301.743v-2.229Z" transform="translate(-29.733 -257.33)" fill="#430596"/>
              </g>
            </g>
            <g id="Group_52096" data-name="Group 52096" transform="translate(161.196 -220.058)">
              <ellipse id="Ellipse_117-2" data-name="Ellipse 117" cx="13.261" cy="13.892" rx="13.261" ry="13.892" transform="translate(1.263 7.577)" fill="#fb6158"/>
              <g id="Group_52066-2" data-name="Group 52066">
                <path id="Path_1327-2" data-name="Path 1327" d="M49.656,300.926H40.462c-5.232-.034-9.456-3.973-9.462-8.824V268.024c.006-4.871,4.264-8.818,9.518-8.824h9.194c5.252.006,9.507,3.955,9.507,8.824V292.1a8.513,8.513,0,0,1-2.8,6.254A9.916,9.916,0,0,1,49.656,300.926Zm-9.194-39.683a7.063,7.063,0,0,0-7.315,6.782V292.1a7.063,7.063,0,0,0,7.315,6.781h9.194A7.074,7.074,0,0,0,56.97,292.1V268.024a7.074,7.074,0,0,0-7.315-6.781Z" transform="translate(-31 -259.2)" fill="#430596"/>
                <path id="Path_1328-2" data-name="Path 1328" d="M43.714,292.619a4.065,4.065,0,0,1-4.054-4.054V270.937a4.054,4.054,0,0,1,8.1,0v17.628A4.054,4.054,0,0,1,43.714,292.619Zm0-23.652a2.011,2.011,0,0,0-2.012,2V288.6a2.012,2.012,0,1,0,4.023,0V270.968a2.012,2.012,0,0,0-2.012-2Z" transform="translate(-29.658 -258.248)" fill="#430596"/>
                <path id="Path_1329-2" data-name="Path 1329" d="M43.792,320.615a6.387,6.387,0,0,1-6.222-6.522,7.03,7.03,0,0,1,.27-1.918,36.5,36.5,0,0,0,1.213-10.431v-3.256a1.037,1.037,0,0,1,1.037-1.037h7.4a1.037,1.037,0,0,1,1.037,1.037v3.256a36.873,36.873,0,0,0,1.244,10.431,6.657,6.657,0,0,1,.28,1.918,6.387,6.387,0,0,1-6.263,6.522Zm-2.665-21.1v2.229A38.686,38.686,0,0,1,39.8,312.755a4.853,4.853,0,0,0-.2,1.338,4.21,4.21,0,1,0,8.409,0,4.844,4.844,0,0,0-.187-1.338A38.366,38.366,0,0,1,46.5,301.743v-2.229Z" transform="translate(-29.733 -257.33)" fill="#430596"/>
              </g>
            </g>
            <g id="Group_52069" data-name="Group 52069" transform="translate(299.425 510.447)">
              <circle id="Ellipse_116" data-name="Ellipse 116" cx="13.892" cy="13.892" r="13.892" transform="translate(9.258 18.788)" fill="#fb6158"/>
              <g id="Group_52068" data-name="Group 52068">
                <g id="Group_52058" data-name="Group 52058">
                  <path id="Path_1242" data-name="Path 1242" d="M205.837,48.44h-.189a1.263,1.263,0,0,1-.96-.745,6.719,6.719,0,0,0-8.184-3.789,1.235,1.235,0,0,1-1.6-1.073,15.792,15.792,0,0,1-.088-1.68,17.6,17.6,0,1,1,35.2,0,12.937,12.937,0,0,1-.076,1.68,1.247,1.247,0,0,1-1.6,1.073,6.719,6.719,0,0,0-7.944,3.284,1.241,1.241,0,0,1-1.983.3,7.843,7.843,0,0,0-11.619.518A1.263,1.263,0,0,1,205.837,48.44ZM198.5,41.1a9.169,9.169,0,0,1,7.577,4.041,10.331,10.331,0,0,1,6.719-2.526,10.179,10.179,0,0,1,6.251,2.109,9.194,9.194,0,0,1,7.312-3.625,9.762,9.762,0,0,1,1.263.076,15.155,15.155,0,1,0-30.234,0A7.2,7.2,0,0,1,198.5,41.1Z" transform="translate(-189.284 -23.076)" fill="#430596"/>
                  <path id="Path_1243" data-name="Path 1243" d="M220.413,44.707h-.063a1.263,1.263,0,0,1-1.174-1.263V41.878c0-8.626-3.789-15.9-8.234-15.9s-8.234,7.274-8.234,15.9v1.566a1.22,1.22,0,1,1-2.437.088v-1.7c0-10.305,4.711-18.388,10.722-18.388s10.722,8.083,10.722,18.388v1.7A1.263,1.263,0,0,1,220.413,44.707Z" transform="translate(-187.847 -22.981)" fill="#430596"/>
                  <path id="Path_1244" data-name="Path 1244" d="M213.982,59.643a10.318,10.318,0,0,1-9.118-5.468,9.207,9.207,0,1,1,2.4-12.743,10.331,10.331,0,0,1,6.719-2.526,10.179,10.179,0,0,1,6.214,2.071,9.207,9.207,0,1,1,2.715,13.538A10.28,10.28,0,0,1,213.982,59.643ZM205.344,50.9a1.048,1.048,0,0,1,.278,0,1.263,1.263,0,0,1,.9.821,7.855,7.855,0,0,0,14.738.493,1.253,1.253,0,0,1,1.945-.493,6.706,6.706,0,1,0-1.667-8.3,1.241,1.241,0,0,1-1.983.3,7.843,7.843,0,0,0-11.619.518,1.243,1.243,0,0,1-2.1-.316,6.719,6.719,0,1,0-1.389,7.312,1.263,1.263,0,0,1,.9-.379Z" transform="translate(-190.433 -19.326)" fill="#430596"/>
                  <path id="Path_1245" data-name="Path 1245" d="M203.058,56.6a29.892,29.892,0,0,1-4.521-.341,1.277,1.277,0,1,1,.379-2.526,26.686,26.686,0,0,0,4.61.316,1.263,1.263,0,0,1,0,2.526Z" transform="translate(-188.589 -15.02)" fill="#430596"/>
                  <path id="Path_1246" data-name="Path 1246" d="M205.742,64.229a29.123,29.123,0,0,1-4.723-.379,1.263,1.263,0,1,1,.4-2.45c8.335,1.339,15.786-1.5,20.56-4.13a1.263,1.263,0,0,1,1.263,2.185,36.965,36.965,0,0,1-17.5,4.774Z" transform="translate(-187.989 -14.124)" fill="#430596"/>
                  <path id="Path_1247" data-name="Path 1247" d="M208.316,70.282a28.717,28.717,0,0,1-4.9-.4,1.242,1.242,0,1,1,.4-2.45,29.211,29.211,0,0,0,13.425-1,1.263,1.263,0,1,1,.72,2.374A33.3,33.3,0,0,1,208.316,70.282Z" transform="translate(-187.293 -11.716)" fill="#430596"/>
                  <path id="Path_1248" data-name="Path 1248" d="M211,76.778a29.7,29.7,0,0,1-5.052-.442,1.263,1.263,0,1,1,.429-2.437,27.961,27.961,0,0,0,6.984.3,1.267,1.267,0,0,1,.2,2.526C212.669,76.74,211.835,76.778,211,76.778Z" transform="translate(-186.695 -9.738)" fill="#430596"/>
                  <path id="Path_1249" data-name="Path 1249" d="M212.09,92.757a1.263,1.263,0,0,1-1.174-.808l-14.8-40.413a1.245,1.245,0,0,1,2.336-.859L212.09,87.92,225.73,50.728a1.263,1.263,0,0,1,2.324.859L213.252,92A1.263,1.263,0,0,1,212.09,92.757Z" transform="translate(-188.958 -16.031)" fill="#430596"/>
                </g>
              </g>
            </g>
            <g id="Group_52097" data-name="Group 52097" transform="translate(408.264 -320.553)">
              <circle id="Ellipse_116-2" data-name="Ellipse 116" cx="13.892" cy="13.892" r="13.892" transform="translate(9.258 18.788)" fill="#fb6158"/>
              <g id="Group_52068-2" data-name="Group 52068">
                <g id="Group_52058-2" data-name="Group 52058">
                  <path id="Path_1242-2" data-name="Path 1242" d="M205.837,48.44h-.189a1.263,1.263,0,0,1-.96-.745,6.719,6.719,0,0,0-8.184-3.789,1.235,1.235,0,0,1-1.6-1.073,15.792,15.792,0,0,1-.088-1.68,17.6,17.6,0,1,1,35.2,0,12.937,12.937,0,0,1-.076,1.68,1.247,1.247,0,0,1-1.6,1.073,6.719,6.719,0,0,0-7.944,3.284,1.241,1.241,0,0,1-1.983.3,7.843,7.843,0,0,0-11.619.518A1.263,1.263,0,0,1,205.837,48.44ZM198.5,41.1a9.169,9.169,0,0,1,7.577,4.041,10.331,10.331,0,0,1,6.719-2.526,10.179,10.179,0,0,1,6.251,2.109,9.194,9.194,0,0,1,7.312-3.625,9.762,9.762,0,0,1,1.263.076,15.155,15.155,0,1,0-30.234,0A7.2,7.2,0,0,1,198.5,41.1Z" transform="translate(-189.284 -23.076)" fill="#430596"/>
                  <path id="Path_1243-2" data-name="Path 1243" d="M220.413,44.707h-.063a1.263,1.263,0,0,1-1.174-1.263V41.878c0-8.626-3.789-15.9-8.234-15.9s-8.234,7.274-8.234,15.9v1.566a1.22,1.22,0,1,1-2.437.088v-1.7c0-10.305,4.711-18.388,10.722-18.388s10.722,8.083,10.722,18.388v1.7A1.263,1.263,0,0,1,220.413,44.707Z" transform="translate(-187.847 -22.981)" fill="#430596"/>
                  <path id="Path_1244-2" data-name="Path 1244" d="M213.982,59.643a10.318,10.318,0,0,1-9.118-5.468,9.207,9.207,0,1,1,2.4-12.743,10.331,10.331,0,0,1,6.719-2.526,10.179,10.179,0,0,1,6.214,2.071,9.207,9.207,0,1,1,2.715,13.538A10.28,10.28,0,0,1,213.982,59.643ZM205.344,50.9a1.048,1.048,0,0,1,.278,0,1.263,1.263,0,0,1,.9.821,7.855,7.855,0,0,0,14.738.493,1.253,1.253,0,0,1,1.945-.493,6.706,6.706,0,1,0-1.667-8.3,1.241,1.241,0,0,1-1.983.3,7.843,7.843,0,0,0-11.619.518,1.243,1.243,0,0,1-2.1-.316,6.719,6.719,0,1,0-1.389,7.312,1.263,1.263,0,0,1,.9-.379Z" transform="translate(-190.433 -19.326)" fill="#430596"/>
                  <path id="Path_1245-2" data-name="Path 1245" d="M203.058,56.6a29.892,29.892,0,0,1-4.521-.341,1.277,1.277,0,1,1,.379-2.526,26.686,26.686,0,0,0,4.61.316,1.263,1.263,0,0,1,0,2.526Z" transform="translate(-188.589 -15.02)" fill="#430596"/>
                  <path id="Path_1246-2" data-name="Path 1246" d="M205.742,64.229a29.123,29.123,0,0,1-4.723-.379,1.263,1.263,0,1,1,.4-2.45c8.335,1.339,15.786-1.5,20.56-4.13a1.263,1.263,0,0,1,1.263,2.185,36.965,36.965,0,0,1-17.5,4.774Z" transform="translate(-187.989 -14.124)" fill="#430596"/>
                  <path id="Path_1247-2" data-name="Path 1247" d="M208.316,70.282a28.717,28.717,0,0,1-4.9-.4,1.242,1.242,0,1,1,.4-2.45,29.211,29.211,0,0,0,13.425-1,1.263,1.263,0,1,1,.72,2.374A33.3,33.3,0,0,1,208.316,70.282Z" transform="translate(-187.293 -11.716)" fill="#430596"/>
                  <path id="Path_1248-2" data-name="Path 1248" d="M211,76.778a29.7,29.7,0,0,1-5.052-.442,1.263,1.263,0,1,1,.429-2.437,27.961,27.961,0,0,0,6.984.3,1.267,1.267,0,0,1,.2,2.526C212.669,76.74,211.835,76.778,211,76.778Z" transform="translate(-186.695 -9.738)" fill="#430596"/>
                  <path id="Path_1249-2" data-name="Path 1249" d="M212.09,92.757a1.263,1.263,0,0,1-1.174-.808l-14.8-40.413a1.245,1.245,0,0,1,2.336-.859L212.09,87.92,225.73,50.728a1.263,1.263,0,0,1,2.324.859L213.252,92A1.263,1.263,0,0,1,212.09,92.757Z" transform="translate(-188.958 -16.031)" fill="#430596"/>
                </g>
              </g>
            </g>
          </g>
          <g id="Group_52094" data-name="Group 52094" transform="translate(1653.088 5036.044)">
            <g id="Group_52067-2" data-name="Group 52067" transform="translate(0 684.536)">
              <path id="Path_1405-2" data-name="Path 1405" d="M28,0A28,28,0,1,0,56,28,28,28,0,0,0,28,0Z" transform="translate(0 15)" fill="#fb6158"/>
              <g id="Group_52057-2" data-name="Group 52057" transform="translate(9.045)">
                <path id="Path_1117-2" data-name="Path 1117" d="M117.252,70.8h27.12a3.252,3.252,0,0,0,3.321-3.252V61.332a3.252,3.252,0,0,0-3.252-3.252h-27.19A3.266,3.266,0,0,0,114,61.332v6.213a3.252,3.252,0,0,0,3.252,3.252Zm27.12-9.99a.54.54,0,0,1,.54.526v6.213a.554.554,0,0,1-.54.54h-27.12a.54.54,0,0,1-.526-.54V61.332a.526.526,0,0,1,.526-.526Z" transform="translate(-111.813 -8.727)" fill="#430596"/>
                <path id="Path_1118-2" data-name="Path 1118" d="M122.444,91.891h15.539a3.708,3.708,0,0,0,3.653-3.2l2.947-21.849A1.384,1.384,0,0,0,143.2,65.31H117.186a1.384,1.384,0,0,0-1.384,1.536l2.947,21.849A3.694,3.694,0,0,0,122.444,91.891Zm19.233-23.869-2.767,20.3a.969.969,0,0,1-.955.844H122.444a.955.955,0,0,1-.955-.844l-2.767-20.3Z" transform="translate(-111.194 -5.953)" fill="#430596"/>
                <path id="Path_1119-2" data-name="Path 1119" d="M118.878,50.526a1.384,1.384,0,0,0,.913-.36,16.175,16.175,0,0,1,22.028,0,1.384,1.384,0,0,0,1.993-.152,16.466,16.466,0,0,0,3.681-10.433,16.687,16.687,0,1,0-33.361,0,16.466,16.466,0,0,0,3.681,10.433,1.384,1.384,0,0,0,.955.512Zm11.927-24.907a13.975,13.975,0,0,1,13.962,13.962,13.741,13.741,0,0,1-2.255,7.6,18.9,18.9,0,0,0-23.4,0,13.74,13.74,0,0,1-2.269-7.6,13.989,13.989,0,0,1,13.962-13.962Z" transform="translate(-111.793 -22.413)" fill="#430596"/>
                <path id="Path_1120-2" data-name="Path 1120" d="M117.786,68.61h27.453A1.384,1.384,0,0,0,146.3,68.1a18.763,18.763,0,0,0,4.151-11.886,18.984,18.984,0,0,0-37.955,0A18.694,18.694,0,0,0,116.651,68.1,1.384,1.384,0,0,0,117.786,68.61Zm26.788-2.767H118.45a16.065,16.065,0,0,1-3.2-9.686,16.258,16.258,0,0,1,32.517,0,16.065,16.065,0,0,1-3.2,9.727Z" transform="translate(-112.5 -16.531)" fill="#430596"/>
              </g>
            </g>
            <g id="Group_52070-2" data-name="Group 52070" transform="translate(113.64 0)">
              <ellipse id="Ellipse_117-3" data-name="Ellipse 117" cx="10.5" cy="11" rx="10.5" ry="11" transform="translate(0.344 6)" fill="#fb6158"/>
              <g id="Group_52066-3" data-name="Group 52066" transform="translate(0)">
                <path id="Path_1327-3" data-name="Path 1327" d="M38.572,292.239h7.28a7.282,7.282,0,0,0,7.492-6.987V266.187a7.286,7.286,0,0,0-7.537-6.987h-7.28A7.277,7.277,0,0,0,31,266.187v19.065a6.741,6.741,0,0,0,2.22,4.952A7.852,7.852,0,0,0,38.572,292.239Zm7.28-31.422a5.593,5.593,0,0,1,5.792,5.37v19.065a5.593,5.593,0,0,1-5.792,5.37h-7.28a5.6,5.6,0,0,1-5.792-5.37V266.187a5.6,5.6,0,0,1,5.792-5.37Z" transform="translate(-31 -259.2)" fill="#430596"/>
                <path id="Path_1328-3" data-name="Path 1328" d="M42.862,287.3a3.219,3.219,0,0,0,3.21-3.21V270.136a3.21,3.21,0,0,0-6.412,0v13.958A3.21,3.21,0,0,0,42.862,287.3Zm0-18.728a1.593,1.593,0,0,1,1.593,1.585v13.958a1.593,1.593,0,1,1-3.186,0V270.16a1.593,1.593,0,0,1,1.593-1.585Z" transform="translate(-31.648 -260.088)" fill="#430596"/>
                <path id="Path_1329-3" data-name="Path 1329" d="M42.529,315.792a5.058,5.058,0,0,0,4.926-5.164,5.566,5.566,0,0,0-.213-1.519,28.9,28.9,0,0,1-.961-8.26v-2.578a.821.821,0,0,0-.821-.821H39.6a.821.821,0,0,0-.821.821v2.578a29.2,29.2,0,0,1-.985,8.26,5.271,5.271,0,0,0-.222,1.519,5.058,5.058,0,0,0,4.959,5.164Zm2.11-16.708v1.765a30.633,30.633,0,0,0,1.051,8.72,3.843,3.843,0,0,1,.156,1.059,3.334,3.334,0,1,1-6.659,0,3.835,3.835,0,0,1,.148-1.059,30.379,30.379,0,0,0,1.051-8.72v-1.765Z" transform="translate(-31.317 -265.682)" fill="#430596"/>
              </g>
            </g>
            <g id="Group_52069-2" data-name="Group 52069" transform="translate(190.925 372.857)">
              <ellipse id="Ellipse_116-3" data-name="Ellipse 116" cx="11" cy="11" rx="11" ry="11" transform="translate(7.331 14.877)" fill="#fb6158"/>
              <g id="Group_52068-3" data-name="Group 52068" transform="translate(0)">
                <g id="Group_52058-3" data-name="Group 52058">
                  <path id="Path_1242-3" data-name="Path 1242" d="M213.95,43.16h.15a1,1,0,0,0,.76-.59,5.32,5.32,0,0,1,6.48-3,.978.978,0,0,0,1.27-.85,12.5,12.5,0,0,0,.07-1.33,13.94,13.94,0,1,0-27.87,0,10.245,10.245,0,0,0,.06,1.33.987.987,0,0,0,1.27.85,5.32,5.32,0,0,1,6.29,2.6.983.983,0,0,0,1.57.24,6.21,6.21,0,0,1,9.2.41A1,1,0,0,0,213.95,43.16Zm5.81-5.81a7.26,7.26,0,0,0-6,3.2,8.18,8.18,0,0,0-5.32-2,8.06,8.06,0,0,0-4.95,1.67,7.28,7.28,0,0,0-5.79-2.87,7.73,7.73,0,0,0-1,.06,12,12,0,1,1,23.94,0A5.7,5.7,0,0,0,219.76,37.35Z" transform="translate(-190.396 -23.076)" fill="#430596"/>
                  <path id="Path_1243-3" data-name="Path 1243" d="M201.3,40.28h.05a1,1,0,0,0,.93-1V38.04c0-6.83,3-12.59,6.52-12.59s6.52,5.76,6.52,12.59v1.24a.966.966,0,1,0,1.93.07V38c0-8.16-3.73-14.56-8.49-14.56s-8.49,6.4-8.49,14.56v1.35A1,1,0,0,0,201.3,40.28Z" transform="translate(-190.426 -23.076)" fill="#430596"/>
                  <path id="Path_1244-3" data-name="Path 1244" d="M208.448,55a8.17,8.17,0,0,0,7.22-4.33,7.29,7.29,0,1,0-1.9-10.09,8.18,8.18,0,0,0-5.32-2,8.06,8.06,0,0,0-4.92,1.64,7.29,7.29,0,1,0-2.15,10.72,8.14,8.14,0,0,0,7.07,4.06Zm6.84-6.92a.83.83,0,0,0-.22,0,1,1,0,0,0-.71.65,6.22,6.22,0,0,1-11.67.39.992.992,0,0,0-1.54-.39,5.31,5.31,0,1,1,1.32-6.57.983.983,0,0,0,1.57.24,6.21,6.21,0,0,1,9.2.41.984.984,0,0,0,1.66-.25,5.32,5.32,0,1,1,1.1,5.79,1,1,0,0,0-.71-.3Z" transform="translate(-190.433 -23.076)" fill="#430596"/>
                  <path id="Path_1245-3" data-name="Path 1245" d="M198.819,56a23.67,23.67,0,0,0,3.58-.27,1.011,1.011,0,1,0-.3-2,21.13,21.13,0,0,1-3.65.25,1,1,0,1,0,0,2Z" transform="translate(-173.614 -23.076)" fill="#430596"/>
                  <path id="Path_1246-3" data-name="Path 1246" d="M214.053,62.75a23.06,23.06,0,0,0,3.74-.3,1,1,0,1,0-.32-1.94c-6.6,1.06-12.5-1.19-16.28-3.27a1,1,0,0,0-1,1.73,29.27,29.27,0,0,0,13.86,3.78Z" transform="translate(-191.449 -23.076)" fill="#430596"/>
                  <path id="Path_1247-3" data-name="Path 1247" d="M210.914,69.45a22.739,22.739,0,0,0,3.88-.32.983.983,0,1,0-.32-1.94,23.13,23.13,0,0,1-10.63-.79,1,1,0,1,0-.57,1.88,26.37,26.37,0,0,0,7.64,1.17Z" transform="translate(-190.899 -23.076)" fill="#430596"/>
                  <path id="Path_1248-3" data-name="Path 1248" d="M207.607,76.16a23.521,23.521,0,0,0,4-.35,1,1,0,1,0-.34-1.93,22.14,22.14,0,0,1-5.53.24,1,1,0,0,0-.16,2C206.287,76.13,206.947,76.16,207.607,76.16Z" transform="translate(-190.192 -23.076)" fill="#430596"/>
                  <path id="Path_1249-3" data-name="Path 1249" d="M208.7,83.83a1,1,0,0,0,.93-.64l11.72-32a.986.986,0,0,0-1.85-.68L208.7,80,197.9,50.55a1,1,0,0,0-1.84.68l11.72,32A1,1,0,0,0,208.7,83.83Z" transform="translate(-190.354 -23.076)" fill="#430596"/>
                </g>
              </g>
            </g>
          </g>
        </g>
      </g>
    </g>
  </g>
</svg>
