<svg xmlns="http://www.w3.org/2000/svg" xmlns:xlink="http://www.w3.org/1999/xlink" width="18" height="18" viewBox="0 0 18 18">
  <defs>
    <clipPath id="clip-path">
      <rect id="Rectangle_31" data-name="Rectangle 31" width="18" height="18" transform="translate(518 7061)" fill="#7a659b" stroke="#707070" stroke-width="1"/>
    </clipPath>
  </defs>
  <g id="Mask_Group_4" data-name="Mask Group 4" transform="translate(-518 -7061)" clip-path="url(#clip-path)">
    <g id="envelope" transform="translate(518 7061)">
      <g id="Group_52078" data-name="Group 52078">
        <g id="Group_52077" data-name="Group 52077">
          <path id="Path_1415" data-name="Path 1415" d="M.376,3.345c2.47,2.092,6.805,5.773,8.079,6.921a.753.753,0,0,0,1.089,0c1.275-1.149,5.61-4.83,8.08-6.922a.375.375,0,0,0,.053-.517A1.489,1.489,0,0,0,16.5,2.25H1.5a1.489,1.489,0,0,0-1.177.578A.375.375,0,0,0,.376,3.345Z" fill="#7a659b"/>
          <path id="Path_1416" data-name="Path 1416" d="M17.782,4.479a.373.373,0,0,0-.4.054c-2.74,2.322-6.236,5.3-7.336,6.291a1.519,1.519,0,0,1-2.093,0C6.78,9.767,2.854,6.429.617,4.533A.375.375,0,0,0,0,4.819V14.25a1.5,1.5,0,0,0,1.5,1.5h15a1.5,1.5,0,0,0,1.5-1.5V4.819A.375.375,0,0,0,17.782,4.479Z" fill="#7a659b"/>
        </g>
      </g>
    </g>
  </g>
</svg>
