<svg xmlns="http://www.w3.org/2000/svg" xmlns:xlink="http://www.w3.org/1999/xlink" width="18" height="18" viewBox="0 0 18 18">
  <defs>
    <clipPath id="clip-path">
      <rect id="Rectangle_32" data-name="Rectangle 32" width="18" height="18" transform="translate(518 7107)" fill="#7a659b" stroke="#707070" stroke-width="1"/>
    </clipPath>
  </defs>
  <g id="Mask_Group_3" data-name="Mask Group 3" transform="translate(-518 -7107)" clip-path="url(#clip-path)">
    <g id="pin" transform="translate(518 7107)">
      <path id="Path_1414" data-name="Path 1414" d="M14.329,3.082A6.108,6.108,0,0,0,9.138,0c-.092,0-.185,0-.277,0a6.108,6.108,0,0,0-5.19,3.081,6.266,6.266,0,0,0-.082,6.192l4.464,8.17.006.011a1.085,1.085,0,0,0,1.882,0l.006-.011,4.464-8.17a6.267,6.267,0,0,0-.082-6.192ZM9,8.156a2.531,2.531,0,1,1,2.531-2.531A2.534,2.534,0,0,1,9,8.156Z" fill="#7a659b"/>
    </g>
  </g>
</svg>
